<svg xmlns="http://www.w3.org/2000/svg" width="28" height="27.841" viewBox="0 0 28 27.841"><g transform="translate(-0.5 -0.079)"><path d="M4.371,14.83a5.452,5.452,0,0,1-1.805-.346,3.641,3.641,0,0,1-1.317-.858A3.648,3.648,0,0,1,.39,12.309,5.463,5.463,0,0,1,.045,10.5C.009,9.71,0,9.457,0,7.437S.009,5.164.045,4.371A5.466,5.466,0,0,1,.39,2.566a3.657,3.657,0,0,1,.858-1.318A3.649,3.649,0,0,1,2.566.39,5.467,5.467,0,0,1,4.371.045C5.165.009,5.418,0,7.438,0S9.711.009,10.5.045A5.466,5.466,0,0,1,12.309.39a3.649,3.649,0,0,1,1.317.858,3.658,3.658,0,0,1,.858,1.318,5.463,5.463,0,0,1,.345,1.805c.037.793.045,1.047.045,3.066S14.866,9.71,14.83,10.5a5.46,5.46,0,0,1-.345,1.805,3.8,3.8,0,0,1-2.175,2.175,5.451,5.451,0,0,1-1.805.346c-.793.036-1.047.045-3.066.045S5.165,14.866,4.371,14.83ZM4.432,1.383a4.107,4.107,0,0,0-1.381.256A2.294,2.294,0,0,0,2.2,2.2a2.306,2.306,0,0,0-.557.855,4.121,4.121,0,0,0-.256,1.381c-.036.784-.043,1.019-.043,3s.007,2.221.043,3.006a4.116,4.116,0,0,0,.256,1.381,2.306,2.306,0,0,0,.557.855,2.3,2.3,0,0,0,.855.556,4.112,4.112,0,0,0,1.381.256c.784.036,1.019.043,3.006.043s2.221-.007,3.005-.043a4.114,4.114,0,0,0,1.381-.256,2.464,2.464,0,0,0,1.412-1.412,4.113,4.113,0,0,0,.256-1.381c.036-.785.043-1.019.043-3.006s-.007-2.221-.043-3a4.117,4.117,0,0,0-.256-1.381,2.306,2.306,0,0,0-.556-.855,2.293,2.293,0,0,0-.855-.556,4.109,4.109,0,0,0-1.381-.256c-.784-.035-1.019-.043-3.005-.043S5.217,1.348,4.432,1.383ZM3.615,7.437A3.823,3.823,0,1,1,7.437,11.26,3.822,3.822,0,0,1,3.615,7.437Zm1.341,0A2.482,2.482,0,1,0,7.437,4.956,2.481,2.481,0,0,0,4.956,7.437Zm5.561-3.971a.891.891,0,1,1,.892.892A.891.891,0,0,1,10.517,3.467Z" transform="translate(6.562 7)" fill="#fff"/><path d="M-1003.5-1350.079h0v-.8a13.034,13.034,0,0,0,7.834-3.783A13.114,13.114,0,0,0-991.8-1364a13.112,13.112,0,0,0-3.866-9.333,13.031,13.031,0,0,0-7.834-3.783v-.8a13.967,13.967,0,0,1,8.885,4.531A13.968,13.968,0,0,1-991-1364a13.969,13.969,0,0,1-3.615,9.389,13.967,13.967,0,0,1-8.884,4.531Zm-3,0h0a13.965,13.965,0,0,1-8.884-4.531A13.97,13.97,0,0,1-1019-1364a13.969,13.969,0,0,1,3.615-9.389,13.965,13.965,0,0,1,8.885-4.531v.8a13.034,13.034,0,0,0-7.835,3.783A13.112,13.112,0,0,0-1018.2-1364a13.114,13.114,0,0,0,3.865,9.334,13.04,13.04,0,0,0,7.835,3.783v.8Z" transform="translate(1019.5 1378)" fill="#fff"/></g></svg>