<svg xmlns="http://www.w3.org/2000/svg" width="28" height="27.841" viewBox="0 0 28 27.841"><g transform="translate(-0.5 0)"><path d="M7.95,11.8a45.015,45.015,0,0,1-6.212-.352A2.054,2.054,0,0,1,.332,9.959,23.347,23.347,0,0,1,0,5.9,23.353,23.353,0,0,1,.332,1.843,2.054,2.054,0,0,1,1.738.352,45.011,45.011,0,0,1,7.95,0a45.011,45.011,0,0,1,6.212.352,2.056,2.056,0,0,1,1.406,1.49A23.393,23.393,0,0,1,15.9,5.9a23.387,23.387,0,0,1-.332,4.058,2.056,2.056,0,0,1-1.406,1.491A45.015,45.015,0,0,1,7.95,11.8ZM6.149,3.41V8.391l4.48-2.49L6.149,3.41Z" transform="translate(6.55 8.229)" fill="#fff"/><path d="M-1003.5-1350.079h0v-.8a13.034,13.034,0,0,0,7.834-3.783A13.114,13.114,0,0,0-991.8-1364a13.112,13.112,0,0,0-3.866-9.333,13.031,13.031,0,0,0-7.834-3.783v-.8a13.967,13.967,0,0,1,8.885,4.531A13.968,13.968,0,0,1-991-1364a13.969,13.969,0,0,1-3.615,9.389,13.967,13.967,0,0,1-8.884,4.531Zm-3,0h0a13.965,13.965,0,0,1-8.884-4.531A13.97,13.97,0,0,1-1019-1364a13.969,13.969,0,0,1,3.615-9.389,13.965,13.965,0,0,1,8.885-4.531v.8a13.034,13.034,0,0,0-7.835,3.783A13.112,13.112,0,0,0-1018.2-1364a13.114,13.114,0,0,0,3.865,9.334,13.04,13.04,0,0,0,7.835,3.783v.8Z" transform="translate(1019.5 1377.921)" fill="#fff"/></g></svg>