<svg xmlns="http://www.w3.org/2000/svg" width="280.63" height="46.772" viewBox="0 0 280.63 46.772">
  <g id="グループ_301" data-name="グループ 301" transform="translate(-2500.247 -429.533)">
    <path id="パス_2252" data-name="パス 2252" d="M2719.3,448.288a3.052,3.052,0,0,0-2.561,1.2,5.36,5.36,0,0,0-.928,3.348,5.628,5.628,0,0,0,.939,3.418,3,3,0,0,0,2.55,1.272,3.029,3.029,0,0,0,2.561-1.272,5.582,5.582,0,0,0,.95-3.418,5.326,5.326,0,0,0-.939-3.338A3.077,3.077,0,0,0,2719.3,448.288Z" fill="#000000"/>
    <path id="パス_2253" data-name="パス 2253" d="M2566.768,448.745a4.443,4.443,0,0,0-2.175-.417h-1.039a.728.728,0,0,0-.727.728v2.519a.727.727,0,0,0,.727.727h1.039a3.592,3.592,0,0,0,2.153-.546,1.844,1.844,0,0,0,.74-1.58A1.519,1.519,0,0,0,2566.768,448.745Z" fill="#000000"/>
    <path id="パス_2254" data-name="パス 2254" d="M2580.773,448.288a3.054,3.054,0,0,0-2.561,1.2,5.366,5.366,0,0,0-.927,3.348,5.628,5.628,0,0,0,.938,3.418,3,3,0,0,0,2.55,1.272,3.029,3.029,0,0,0,2.562-1.272,5.588,5.588,0,0,0,.949-3.418,5.332,5.332,0,0,0-.938-3.338A3.077,3.077,0,0,0,2580.773,448.288Z" fill="#000000"/>
    <path id="パス_2255" data-name="パス 2255" d="M2737.772,448.745a4.442,4.442,0,0,0-2.175-.417h-1.038a.728.728,0,0,0-.728.728v2.519a.727.727,0,0,0,.728.727h1.038a3.591,3.591,0,0,0,2.153-.546,1.844,1.844,0,0,0,.74-1.58A1.519,1.519,0,0,0,2737.772,448.745Z" fill="#000000"/>
    <path id="パス_2256" data-name="パス 2256" d="M2763.2,448.348h-.53v9.1h.53a4.83,4.83,0,0,0,3.334-1.064,4.552,4.552,0,0,0,1.193-3.547,4.379,4.379,0,0,0-1.182-3.488A5.022,5.022,0,0,0,2763.2,448.348Z" fill="#000000"/>
    <path id="パス_2257" data-name="パス 2257" d="M2500.247,429.533V476.3h280.63V429.533Zm24.657,20.651a.728.728,0,0,1-.728.727H2521.9a.728.728,0,0,0-.722.634l-.23,1.764a.728.728,0,0,0,.722.822h1.91a.727.727,0,0,1,.727.728v.77a.727.727,0,0,1-.727.728h-2.392a.728.728,0,0,0-.721.628l-.356,2.579a.728.728,0,0,1-.721.628h-.822a.728.728,0,0,1-.721-.831l.313-2.173a.728.728,0,0,0-.72-.831h-1.949a.728.728,0,0,0-.721.628l-.356,2.579a.728.728,0,0,1-.721.628h-.805a.728.728,0,0,1-.721-.827l.3-2.181a.727.727,0,0,0-.721-.827h-1.66a.728.728,0,0,1-.728-.728v-.77a.728.728,0,0,1,.728-.728h2.144a.727.727,0,0,0,.721-.634l.23-1.764a.727.727,0,0,0-.722-.822h-1.777a.728.728,0,0,1-.728-.727v-.79a.728.728,0,0,1,.728-.728h2.286a.728.728,0,0,0,.72-.623l.3-2.093a.729.729,0,0,1,.72-.623h.77a.729.729,0,0,1,.722.824l-.224,1.691a.727.727,0,0,0,.721.824h1.959a.727.727,0,0,0,.72-.628l.29-2.083a.728.728,0,0,1,.721-.628h.766a.728.728,0,0,1,.721.824l-.224,1.691a.729.729,0,0,0,.722.824h1.8a.728.728,0,0,1,.728.728ZM2540,460.311h-2.55a.726.726,0,0,1-.612-.334l-3.131-4.883a.728.728,0,0,0-1.176-.068l-.989,1.209a.724.724,0,0,0-.165.461v2.888a.727.727,0,0,1-.728.727h-2.5a.727.727,0,0,1-.728-.727v-13.35a.728.728,0,0,1,.728-.728h2.5a.728.728,0,0,1,.728.728v5.135h.067l4.44-5.588a.728.728,0,0,1,.57-.275h2.42a.728.728,0,0,1,.558,1.195l-3.621,4.33a.729.729,0,0,0-.048.87l4.843,7.28A.727.727,0,0,1,2540,460.311Zm15.7-6.955q0,3.716-1.635,5.475a6.433,6.433,0,0,1-4.946,1.759,6.556,6.556,0,0,1-5-1.769q-1.668-1.769-1.667-5.465v-7.122a.728.728,0,0,1,.728-.728h2.475a.728.728,0,0,1,.727.728v7.5a4.874,4.874,0,0,0,.674,2.921,2.441,2.441,0,0,0,2.064.874,2.493,2.493,0,0,0,2.087-.884,4.758,4.758,0,0,0,.7-2.911v-7.5a.727.727,0,0,1,.727-.728h2.343a.728.728,0,0,1,.728.728Zm15.153,6.955h-2.684a.727.727,0,0,1-.629-.362l-2.6-4.482a.728.728,0,0,0-.629-.362h-.753a.727.727,0,0,0-.727.727v3.752a.727.727,0,0,1-.728.727h-2.5a.726.726,0,0,1-.727-.727v-13.35a.727.727,0,0,1,.727-.728h5.3a8.82,8.82,0,0,1,4.671,1.083,3.886,3.886,0,0,1,1.755,3.587,4.3,4.3,0,0,1-2.139,3.927.734.734,0,0,0-.265,1.021l2.547,4.074A.727.727,0,0,1,2570.854,460.311Zm16.51-3.338a6.482,6.482,0,0,1-2.649,2.683,8.784,8.784,0,0,1-7.883,0,6.471,6.471,0,0,1-2.65-2.683,8.618,8.618,0,0,1-.938-4.134,8.385,8.385,0,0,1,.938-4.094,6.3,6.3,0,0,1,2.639-2.6,9.184,9.184,0,0,1,7.905,0,6.291,6.291,0,0,1,2.638,2.614,8.392,8.392,0,0,1,.939,4.083A8.618,8.618,0,0,1,2587.364,456.973Zm19.061,2.611a.727.727,0,0,1-.727.727h-2.144a.727.727,0,0,1-.728-.727v-4.34a37.98,37.98,0,0,1,.53-5.128h-.11l-1.369,3.538-2.023,4.953a.729.729,0,0,1-.674.452h-1.188a.728.728,0,0,1-.673-.45l-2.045-4.955-1.324-3.538h-.089q.243,1.71.376,2.942a20.813,20.813,0,0,1,.132,2.186v4.34a.726.726,0,0,1-.727.727h-2.078a.727.727,0,0,1-.728-.727v-13.35a.728.728,0,0,1,.728-.728h3.045a.728.728,0,0,1,.674.453l2.421,5.946q.175.457.309.874c.088.279.176.537.265.776l.331,1.033h.11q.177-.477.486-1.431.243-.775.419-1.252l2.336-5.938a.729.729,0,0,1,.678-.461h3.06a.728.728,0,0,1,.727.728Zm7.729,0a.727.727,0,0,1-.728.727h-2.5a.727.727,0,0,1-.728-.727v-13.35a.728.728,0,0,1,.728-.728h2.5a.728.728,0,0,1,.728.728Zm14.264-11.845a.728.728,0,0,1-.728.728h-5.081a.728.728,0,0,0-.728.728v1.783a.728.728,0,0,0,.728.728h4.154a.728.728,0,0,1,.727.728v1.506a.728.728,0,0,1-.727.727h-4.154a.728.728,0,0,0-.728.728v4.189a.727.727,0,0,1-.728.727h-2.5a.727.727,0,0,1-.728-.727v-13.35a.728.728,0,0,1,.728-.728h9.033a.728.728,0,0,1,.728.728Zm15.071-1.17-4.336,8.358a.736.736,0,0,0-.081.335v4.322a.727.727,0,0,1-.728.727h-2.475a.727.727,0,0,1-.728-.727v-4.323a.735.735,0,0,0-.081-.334l-4.317-8.359a.728.728,0,0,1,.647-1.062h2.515a.727.727,0,0,1,.672.449l1.183,2.85,1.324,3.3h.089q.729-1.769.971-2.345l.4-.954,1.182-2.85a.729.729,0,0,1,.673-.449h2.446A.728.728,0,0,1,2643.489,446.569Zm14.848,1.17a.727.727,0,0,1-.727.728H2654.6a.728.728,0,0,0-.728.728v10.389a.727.727,0,0,1-.728.727h-2.5a.727.727,0,0,1-.728-.727V449.2a.728.728,0,0,0-.728-.728h-2.982a.728.728,0,0,1-.728-.728v-1.505a.728.728,0,0,1,.728-.728h11.4a.727.727,0,0,1,.727.728Zm15.832,11.845a.727.727,0,0,1-.728.727h-2.475a.727.727,0,0,1-.728-.727v-4.626a.727.727,0,0,0-.727-.728h-3.955a.728.728,0,0,0-.728.728v4.626a.726.726,0,0,1-.727.727h-2.5a.727.727,0,0,1-.728-.727v-13.35a.728.728,0,0,1,.728-.728h2.5a.727.727,0,0,1,.727.728v4.188a.728.728,0,0,0,.728.728h3.955a.727.727,0,0,0,.727-.728v-4.188a.728.728,0,0,1,.728-.728h2.475a.728.728,0,0,1,.728.728Zm14.463,0a.727.727,0,0,1-.728.727H2678.7a.727.727,0,0,1-.728-.727v-13.35a.728.728,0,0,1,.728-.728h8.966a.728.728,0,0,1,.728.728v1.505a.728.728,0,0,1-.728.728h-5.014a.728.728,0,0,0-.728.728v1.287a.728.728,0,0,0,.728.728h4.043a.728.728,0,0,1,.727.728v1.525a.727.727,0,0,1-.727.727h-4.043a.728.728,0,0,0-.728.728V456.6a.728.728,0,0,0,.728.728h5.257a.728.728,0,0,1,.728.728Zm18.926.137a.728.728,0,0,1-.715.59h-3.787a.728.728,0,0,1-.71-.564L2701,453.873q-.4-1.71-.641-3.439h-.088l-.265,1.372c-.044.225-.1.55-.177.973s-.147.789-.22,1.094l-1.309,5.869a.727.727,0,0,1-.71.569h-3.7a.727.727,0,0,1-.714-.584l-2.688-13.35a.727.727,0,0,1,.713-.871h2.506a.728.728,0,0,1,.719.617l.943,6.14.663,4.69h.088q.375-1.988.971-4.69l1.541-6.2a.73.73,0,0,1,.707-.552h2.2a.727.727,0,0,1,.705.55l1.562,6.207q.2.875.552,2.663l.4,2.027h.111l.618-4.69.984-6.144a.729.729,0,0,1,.719-.613h2.229a.728.728,0,0,1,.715.865Zm18.335-2.748a6.477,6.477,0,0,1-2.65,2.683,8.783,8.783,0,0,1-7.883,0,6.475,6.475,0,0,1-2.649-2.683,8.618,8.618,0,0,1-.938-4.134,8.385,8.385,0,0,1,.938-4.094,6.3,6.3,0,0,1,2.638-2.6,9.184,9.184,0,0,1,7.9,0,6.287,6.287,0,0,1,2.639,2.614,8.4,8.4,0,0,1,.938,4.083A8.629,8.629,0,0,1,2725.893,456.973Zm15.965,3.338h-2.684a.728.728,0,0,1-.629-.362l-2.6-4.482a.727.727,0,0,0-.629-.362h-.752a.727.727,0,0,0-.728.727v3.752a.727.727,0,0,1-.728.727h-2.5a.727.727,0,0,1-.727-.727v-13.35a.728.728,0,0,1,.727-.728h5.3a8.819,8.819,0,0,1,4.671,1.083,3.885,3.885,0,0,1,1.755,3.587,4.291,4.291,0,0,1-2.139,3.927.735.735,0,0,0-.265,1.021l2.547,4.074A.728.728,0,0,1,2741.858,460.311Zm14.009-.727a.726.726,0,0,1-.727.727h-8.9a.726.726,0,0,1-.727-.727v-13.35a.727.727,0,0,1,.727-.728h2.5a.728.728,0,0,1,.728.728V456.6a.728.728,0,0,0,.727.728h4.949a.727.727,0,0,1,.727.728Zm13.724-1.141a8.8,8.8,0,0,1-5.929,1.868h-4.218a.727.727,0,0,1-.728-.727v-13.35a.728.728,0,0,1,.728-.728h4a9.422,9.422,0,0,1,6.116,1.8q2.208,1.8,2.209,5.534A6.985,6.985,0,0,1,2769.591,458.443Z" fill="#000000"/>
    <path id="パス_2258" data-name="パス 2258" d="M2518.135,450.911H2516.2a.729.729,0,0,0-.722.629l-.242,1.764a.728.728,0,0,0,.721.827h1.949a.727.727,0,0,0,.722-.634l.23-1.764A.728.728,0,0,0,2518.135,450.911Z" fill="#000000"/>
  </g>
</svg>
