<svg xmlns="http://www.w3.org/2000/svg" width="291.198" height="283.333" viewBox="0 0 291.198 283.333"><path d="M369.716,266.607h-1.542c0,21.386,0,41.587-28.988,41.587v1.557c28.988,0,28.988,20.2,28.988,41.587h1.542c0-21.386,0-41.587,28.989-41.587v-1.557C369.716,308.194,369.716,287.993,369.716,266.607Z" transform="translate(-223.346 -266.607)"/><path d="M548.1,393.409a10.629,10.629,0,0,0,.236-2.2,10.358,10.358,0,0,0-10.266-10.421l-.021,0a122.359,122.359,0,0,0-18.087-42.323,8.75,8.75,0,0,0-5.847-15.123,8.468,8.468,0,0,0-4.811,1.493,122.175,122.175,0,0,0-48.637-32.891v1.736c17.708,6.741,33.789,18.7,46.548,33.2a8.812,8.812,0,0,0-.677,9.333l0,0c-13.241,5.516-51.587,23.853-58.633,28.208a2.279,2.279,0,0,0-1.067,1.876c-.062,2.764.023,6.058.261,10.13-8.914-3.151-14.875-5-27.236-5s-18.322,1.853-27.237,5c.237-4.072.324-7.365.262-10.13a2.276,2.276,0,0,0-1.068-1.876c-7.047-4.354-45.391-22.691-58.632-28.208l0,0A8.82,8.82,0,0,0,332.6,327c12.778-14.552,28.9-26.562,46.659-33.323v-1.736a122.183,122.183,0,0,0-48.718,32.983,8.481,8.481,0,0,0-4.935-1.585,8.667,8.667,0,0,0-8.6,8.732,8.763,8.763,0,0,0,2.883,6.511,122.439,122.439,0,0,0-19.662,51.287c-16,5.926-25.863,13.355-25.863,22.065,0,9.908,10.371,19.443,28.608,27.207,13.7,52.933,60.958,92.292,116.992,92.292s103.289-39.359,116.992-92.292c18.237-7.764,28.606-17.3,28.606-27.207C565.561,404.878,559.069,398.666,548.1,393.409ZM534.494,381.45a10.363,10.363,0,0,0-5.517,4.936c-6.24-1.8-13.1-3.412-20.431-4.842,1.868-15.491,3.771-32.864,4.394-40.83a8.246,8.246,0,0,0,4.515-.592A116.7,116.7,0,0,1,534.494,381.45Zm-88.659,61.978a.435.435,0,0,1,.241-.343l19.35-9.4c.193-.094,4.183-1.849,5.075-2.209a18.933,18.933,0,0,0,4.892-2.651,5.452,5.452,0,0,0,1.749-4.547h.31s2.046,8.3-6.316,10.542c.081.518.3,2.329.329,2.578,7.378-.032,7.382-5.3,7.382-5.3h.3a9.145,9.145,0,0,1-1.944,6.412,7.523,7.523,0,0,1-5.379,2.419c.976,13.561-3.836,19.326-6.8,21.556a13,13,0,0,1-12.56,1.754c-3.342-1.342-5.718-5.743-6.515-12.081A42.2,42.2,0,0,1,445.835,443.428ZM360.562,432.1h.307s0,5.27,7.381,5.3c.03-.248.248-2.059.33-2.578-8.363-2.243-6.316-10.542-6.316-10.542h.308a5.45,5.45,0,0,0,1.751,4.547,18.9,18.9,0,0,0,4.892,2.651c.891.36,4.881,2.115,5.074,2.209l19.348,9.4a.427.427,0,0,1,.241.343,42.13,42.13,0,0,1-.115,8.73c-.8,6.338-3.173,10.739-6.517,12.081a13,13,0,0,1-12.559-1.754c-2.964-2.23-7.776-7.995-6.8-21.556a7.522,7.522,0,0,1-5.377-2.419A9.152,9.152,0,0,1,360.562,432.1Zm-38.126-91.914a8.176,8.176,0,0,0,4.346.529c.624,7.973,2.528,25.366,4.4,40.866a217.345,217.345,0,0,0-27.008,6.9A117.85,117.85,0,0,1,322.436,340.184Zm-40.109,70.457c0-5.6,6.065-11.373,17.369-16.558a127.218,127.218,0,0,0-.741,13.549,125.743,125.743,0,0,0,1.623,20.1C288.683,422.7,282.327,416.819,282.327,410.641Zm20.452-3.009a132.061,132.061,0,0,1,.89-15.261,172.394,172.394,0,0,1,27.828-8.184c1.488,12.2,2.908,22.781,3.583,25.938a2.248,2.248,0,0,0,1.674,1.725c4.07.952,9.382,2.385,13.1,3.419a60.969,60.969,0,0,0-4.642,23.562c-16.57-2.423-30.189-5.657-40.456-9.444A120.134,120.134,0,0,1,302.78,407.632ZM419.963,526.91c-53.176,0-98.187-36.887-112.458-85.934a221.025,221.025,0,0,0,39.1,10.453c.422,1.944.935,3.892,1.557,5.836,4.676,14.619,16.871,23.3,27.46,28.335,9.8,4.658,23.923,8.8,44.241,8.8s34.446-4.139,44.242-8.8c10.588-5.036,22.784-13.716,27.46-28.335.618-1.932,1.129-3.865,1.549-5.8a221.534,221.534,0,0,0,39.31-10.493C518.151,490.022,473.139,526.91,419.963,526.91Zm115.2-97.524c-10.308,3.8-24,7.049-40.658,9.475a60.953,60.953,0,0,0-4.644-23.592c3.723-1.034,9.033-2.468,13.1-3.419a2.246,2.246,0,0,0,1.673-1.725c.677-3.16,2.1-13.761,3.59-25.979a199.806,199.806,0,0,1,19.742,5.232,10.505,10.505,0,0,0-.168,1.827,10.379,10.379,0,0,0,9.178,10.362c.1,2.016.165,4.036.165,6.065A120.134,120.134,0,0,1,535.165,429.386Zm-4.5-38.181a7.4,7.4,0,1,1,7.4,7.515A7.465,7.465,0,0,1,530.668,391.205Zm8.678,36.528a125.75,125.75,0,0,0,1.621-20.1c0-2.14-.08-4.266-.193-6.385a10.294,10.294,0,0,0,5.619-3.966c7.32,4.306,11.2,8.887,11.2,13.36C557.6,416.819,551.243,422.7,539.347,427.733Z" transform="translate(-274.363 -248.102)"/></svg>