<svg xmlns="http://www.w3.org/2000/svg" width="271.494" height="79.998" viewBox="0 0 271.494 79.998"><g transform="translate(-52.367 -1054.077)"><g transform="translate(52.367 1100.478)"><path d="M442.089,1155.595c-.138.069-.069.414-.276.414.207.414-.414.276-.276.69-.483.207-.414.9-.965.827-.483.414-.689,1.1-1.31,1.172-.69,1.034-1.931.552-2.965.552-.689-.276-.758-1.034-1.1-1.517,0-.759-.689-1.31-.621-2.069-.276-.276-.345-.689-.62-.965a1.156,1.156,0,0,1,.207-.827c.552-.345,1.31-.414,1.586-.965.345.138.965-.414,1.448-.138.207.414.827.414.827.9.345.138.483.758,1.034.552.138-.345.414-.069.62-.138a5.831,5.831,0,0,1,1.172-.345c.345-.414.621.414,1.1.138C442.3,1154.354,442.572,1155.181,442.089,1155.595Z" transform="translate(-170.855 -1131.099)"/><path d="M441.693,1134.052l-.069.138c-.414,2.551-.689,4.826-1.034,7.447-.207.345-.069.758-.138,1.1a2.235,2.235,0,0,1-1.448,1.586c-.621-.207-1.517,0-2.068-.552-.207-.62.483-1.1.345-1.724.276-.207,0-.621.207-.9a64.419,64.419,0,0,0,1.172-9.791c.207-.552.965-.414,1.31-.758.552-.069,1.241-.414,1.862-.069a1.72,1.72,0,0,1,.069,1.172C442.107,1132.4,441.624,1133.293,441.693,1134.052Z" transform="translate(-171.769 -1124.172)"/><path d="M420.49,1132.626a1.8,1.8,0,0,0-1.862-.207,23.465,23.465,0,0,0-3.1.207c-.621-.207-1.517.414-1.793-.551-1.172-.276-2.068.414-2.965,1.172,0,.207-.069.483.138.62,0,.965.483,1.724.414,2.689.483,1.241.276,2.827.345,4.206a.868.868,0,0,1-.9.207c-.414.207-.9-.069-1.241.138-2.068.069-3.585,1.448-5.1,2.551-.552.9-1.31,2-.758,3.172.345.138.069.621.483.759-.069.552.758.62.621,1.241.207.207.414.552.758.621.345.414.827.414,1.241.689,2.137.276,4.413.345,6-1.379.414-.345.483-.827.9-1.241.069-1.034.621-1.793.621-2.827.414-.138-.069-.758.483-.827.552.483,1.1.9,1.655,1.448.345-.207.207.207.552.276.069-.552.414.069.621-.069.207-.207.414.276.621,0,.345.207.483-.483.9-.207.689-.207.276-.758.621-1.241,0-.069-.069-.069-.138-.069.414-.276-.345-.552.069-.758-.276-.207-.345-.62-.758-.62-.207-.069-.138-.276-.207-.414-.069-.069-.138.069-.207.138a12.98,12.98,0,0,0-3.723-1.1c-.069-.689.069-1.517.069-2.206a17.9,17.9,0,0,0-.207-2.758c.207-.552-.276-1.172.483-1.379a27.6,27.6,0,0,1,3.378,0c.621-.207,1.034.552,1.586-.069,0-.207.207-.138.276-.276A1.66,1.66,0,0,0,420.49,1132.626Zm-9.446,12.618c-.207.69-.345,1.448-.621,2.137-.207.345-.276.552-.69.62a2.994,2.994,0,0,1-2.9-1.724c-.276-.207-.138-.69-.138-.9a5.221,5.221,0,0,1,1.241-1.517c.207.207.138-.207.345-.138a4.829,4.829,0,0,1,2.965-.138C411.113,1144.21,411.32,1144.624,411.044,1145.244Z" transform="translate(-161.391 -1124.678)"/><path d="M391.8,1144.259c-.069.552-.689.276-.9.552a10.348,10.348,0,0,1-3.93-1.034c-.552-.414-1.31-.552-1.793-.965-.345-.276-1.172-.138-1.034-.827.069-.276.621-.345.758-.689a7.54,7.54,0,0,1,1.586-.62c.69-.276,1.241.414,1.862.482a19.58,19.58,0,0,0,3.516,1.379,1.7,1.7,0,0,1,.276,1.31C391.937,1143.983,392.006,1144.328,391.8,1144.259Z" transform="translate(-155.384 -1127.347)"/><path d="M389.848,1157.536a8.344,8.344,0,0,1-.345,2.9c-.207.689-.483,1.31-.69,2-.276,0-.276.414-.552.552a2.021,2.021,0,0,1-1.793.9c-.69-.138-1.448.276-1.931-.414-.069-.758.9-.758.827-1.448.965-.483.965-1.724,1.379-2.62-.138-.9.207-1.793,0-2.689a4.464,4.464,0,0,0-.069-1.655,6.757,6.757,0,0,0-1.241-1.861c-.276,0-.345-.276-.552-.414a3.429,3.429,0,0,0-2.482.069,3,3,0,0,1-2.758.207c-.345-.138-.758-.069-.9-.345a.6.6,0,0,1,.345-.62c.207,0,.138-.345.414-.276.414-.758,1.31-.689,1.931-1.241.689,0,1.379-.414,2.137-.483a8.765,8.765,0,0,1,4,.689,6.277,6.277,0,0,1,2.551,4.551A7.444,7.444,0,0,1,389.848,1157.536Z" transform="translate(-153.708 -1130.282)"/><path d="M376.6,1138.8l-2.551-.069-.414-.414a44.476,44.476,0,0,1-1.448-4.275c-.138-.345-.483-.69-.345-1.1.414-.345.758-.965,1.448-.965l.207-.138c.414-.069.9.069,1.31-.138.207.414.552.758.414,1.241a18.661,18.661,0,0,0,1.172,2.689c.069.483.207,1.1.758,1.31.138.345.345.9.069,1.241A1.1,1.1,0,0,1,376.6,1138.8Z" transform="translate(-151.558 -1124.582)"/><path d="M364.819,1148.711c-.207-.276-.069-.758-.069-1.034-.138-.483.276-.965-.138-1.31a3.05,3.05,0,0,0-.345-1.931,7.86,7.86,0,0,0-4.137-5.516,5.606,5.606,0,0,0-2.137-.138c-1.172,0-.276-1.448-.414-2.137.276-.414.827-.207,1.241-.345.483-.207.9.276,1.241-.069.069,0,.138.069.138.207a2.035,2.035,0,0,0,1.517-1.379c-.207-.207,0-.414.138-.621-.207-.483-.207-.9-.827-1.1a.746.746,0,0,0-.9.138c-.965-.207-1.448.689-2.275.552a10.279,10.279,0,0,1,.138-1.448c0-.207-.207-.414-.138-.621-.345-.759-.965.069-1.517-.069-.552.069-.9.483-1.31.689-.62.414-.345,1.1-.414,1.655a2.064,2.064,0,0,1-1.241.207c-1.31.345-2.62.138-3.861.483a2.617,2.617,0,0,0-1.586.414c-.483.345-1.517.62-1.379,1.379.069.758.827-.069,1.034.551.414.276.9.069,1.448.276a27.136,27.136,0,0,1,4.826-.827l.414.138a18.575,18.575,0,0,1-.207,2.758,20.457,20.457,0,0,0-3.379,1.379,5.321,5.321,0,0,0-2.068,1.31c-.069.069,0,.207-.138.207a7.516,7.516,0,0,0-1.586,3.034c.069.138-.138.483.138.483a3.441,3.441,0,0,0,.345,1.448c-.069.483.483.758.414,1.31a7.851,7.851,0,0,0,1.241,1.724,4.9,4.9,0,0,0,1.517.483c1.172-.069,2.482.138,3.241-1.1.621-.828,1.1-1.931,1.724-2.827a8.307,8.307,0,0,0,.552-1.862,17.97,17.97,0,0,1,.689-1.724,5.753,5.753,0,0,1,.414-2.413c.483.138,1.034.069,1.379.414,3.034,2.275,3.172,6.274,3.1,9.86-.207.414-.276.965-.827.827-.207.069-.276-.207-.414.069a4.212,4.212,0,0,0-2.62.276c-.758,0-1.241.758-1.793,1.1,0,.276-.276.414-.276.758a2.55,2.55,0,0,0,1.862.483c.276.138.483-.138.62.069a2.892,2.892,0,0,0,1.1-.276c1.31.138,2.758-.62,4.068-.965.138-.207.207-.414.483-.414a3.915,3.915,0,0,0,.965-3.241C364.957,1149.608,364.543,1149.125,364.819,1148.711Zm-11.17-5.792a11.528,11.528,0,0,1-1.034,3.309,11.033,11.033,0,0,1-.9,2.068c-1.172-.345-1.793-1.724-2-2.9.345-1.862,2.344-2.9,3.93-3.31C353.925,1142.368,353.58,1142.644,353.649,1142.92Z" transform="translate(-143.71 -1124.56)"/><path d="M336.27,1153.377c0,.138,0,.276-.138.276a2.442,2.442,0,0,1-1.517,1.931c-.138.138-.345.414-.552.276a12.306,12.306,0,0,1-1.586.138c-.069-.276-.552-.414-.414-.759,0-.552,1.31-1.31.276-1.655-.069-.276-.276-.483-.483-.414-.345-.069-.483.414-.758.276-.069.276-.414.276-.552.483-.207,0-.345-.483-.552-.207-.276.345-.689-.069-1.034,0-.069-.276-.345-.207-.483-.207-.069.069-.207.138-.207.069l-.207.276c.345,1.931.207,4,1.034,5.654a1.624,1.624,0,0,1,.483,1.034c.138.483-.552.483-.621.9a3.137,3.137,0,0,1-2.068.414.95.95,0,0,1-.9-.345c-.345-.689-.138-1.448-.552-2,.138-1.241-.483-2.551-.414-3.723-.138-.207-.138-.552-.414-.552-.345.069-.9.276-1.172.345-.621-.414-1.586.207-1.793-.828.069-.138,0-.414.069-.552.414-.138.345-.483.758-.689l.069.069c.138-.276.483-.207.621-.483a3.867,3.867,0,0,0,1.586-.827c-.414-.552,0-1.241-.276-1.793-.069-.827-.138-1.655.552-2.137.345-.138.552-.552.827-.758.552.069,1.379-.62,1.655,0,.483.483,0,1.1.138,1.655a7.223,7.223,0,0,0,.069,1.724c.138.345.276,0,.483,0,.276-.689-.414-1.792.552-2.068.345-.759,1.31-.621,1.931-1.1.276.069.827.069.758.552,0,.069.069.069.138.069.138.621-.069,1.379.207,1.931.758.207,1.586-.069,2.344.207a4.18,4.18,0,0,1,1.655.414c0,.276.552.276.345.758.414.345.207.828.207,1.241C336.2,1153.1,336.132,1153.308,336.27,1153.377Z" transform="translate(-135.984 -1129.432)"/><path d="M314.221,1136.733c-1.793,0-3.861.276-5.861.276-.9-.069-1.586.345-2.413.138-.9.138-.552,1.172-1.034,1.724a2.775,2.775,0,0,0-.345,1.655c.827.069,1.517-.207,2.275-.207a8.518,8.518,0,0,1,2.965-.276,2.616,2.616,0,0,1,2.137,1.172c.758,1.241.483,2.758.689,4.068-.276.207.138.414-.069.552.276,1.655-.827,3.172-1.724,4.482-.138.62-.827,1.172-.965,1.861a5.033,5.033,0,0,0-1.034,2c-.069.069-.345.276-.207.414-.345.138-.689,0-.827.414l-2.137-.138c-.069-.276-.689-.069-.552-.552.276-.207.207-.689.621-.759.621-.62.9-1.379,1.517-2-.069-.276.414-.483.483-.828a29.945,29.945,0,0,0,1.586-2.965,11.729,11.729,0,0,0-.345-4.689,1.04,1.04,0,0,0-.965-.621,18.821,18.821,0,0,0-3.31.69c-.345.483-.9.138-1.241.689-.345-.069-.758.345-.965,0-.414.207-.827-.552-1.379-.276-.345-.345-.965-.414-.758-.965v-.345h.276c-.483-.276.483-.414.276-.827-.069-.483.62-.689.483-1.241a8.767,8.767,0,0,0,.827-2.482l-.138-.138a10.464,10.464,0,0,0-2.62.345,20.6,20.6,0,0,1-2.206-.621c-.689-.689.552-.9.552-1.448.483-.276.965-.276,1.379-.62a17.118,17.118,0,0,0,3.723-.207c.621-.414.414-1.448,1.241-1.655.138-.276.621.069.758-.276.276.207.689-.207,1.034-.276.345.345.9.827.552,1.379a1.279,1.279,0,0,0-.138.483,59.6,59.6,0,0,0,6.067-.276,12.393,12.393,0,0,0,1.517-.414c.207-.138.276.207.414,0,.138.069.207.138.345.138.414.552.827,1.241.414,1.93C314.979,1136.388,314.565,1136.526,314.221,1136.733Z" transform="translate(-128.345 -1124.923)"/><path d="M295.106,1159.208a12.55,12.55,0,0,1-1.172,3.034c-.276.138-.138.552-.552.621-.138.552-.827.552-1.31.758-.483.069-1.034-.276-1.517.069-.276,0-.483-.276-.621-.483-.069-.276.276-.207.276-.414.138-.276.552-.413.345-.758.483-.069.414-.621.827-.828.069-.276.689-.483.483-.9.276-.414-.138-.827.276-1.241a8.748,8.748,0,0,0-.276-3.241c-.207-.483-.758-.483-1.1-.827-.621.276-1.379,0-1.724.689-.483.552-1.1.552-1.724.827-.621-.276-1.31.345-1.862-.345,0-1.034,1.172-1.379,1.655-2.206.414.069.621-.414,1.034-.345.276-.207.483-.69.965-.552a3.515,3.515,0,0,1,1.862-.414,4.739,4.739,0,0,1,3.1.483c.552.758,1.31,1.586,1.1,2.62.345.483.069.965.276,1.448A20.2,20.2,0,0,1,295.106,1159.208Z" transform="translate(-124.744 -1131.058)"/><path d="M288.369,1131.217c.207.276-.207.276-.138.552-.345.276-.827.207-1.172.414-.414-.276-.758.276-1.1-.069-.827-.138-1.241-.827-2.068-.965-1.1-.552-2.206-1.241-3.378-1.724a.655.655,0,0,1-.276-.759,3.281,3.281,0,0,1,3.172-1.586,3.269,3.269,0,0,0,1.448,1.1,8.019,8.019,0,0,0,2.9,1.172c.138.276.345.138.414.483.138.276.552.69.276,1.034C288.507,1131.01,288.507,1131.148,288.369,1131.217Z" transform="translate(-123.109 -1123.131)"/><path d="M269.677,1132.19a.241.241,0,0,0-.138.069c.138.138,0,.345-.069.552a5.458,5.458,0,0,1-1.931.827,5.187,5.187,0,0,0-3.241.345c-.414.621-.689,1.517-1.034,2.138a37.783,37.783,0,0,0-1.862,4.9,2.483,2.483,0,0,1,.483,1.517c-.069.069-.138.069-.207.207,0,.138.069.207,0,.345-.138,0-.207.207-.276.345a1.927,1.927,0,0,1-1.241.758c-.758-.483-2.413.138-2.206-1.241.276-.827.138-1.793.621-2.62,0-.414.345-.689.414-1.034.827-1.655,1.379-3.378,2.068-5.033a2.863,2.863,0,0,0-2.137,0c-1.172-.207-2.275.827-3.241-.138-.276.138-.621-.138-.827-.414.138-.276.414-.483.552-.758.827-.414,1.448-1.172,2.482-.965,1.1-.138,2.344-.414,3.516-.552.276.207.483-.069.758-.069.207-.62.621-1.1.552-1.792a3.04,3.04,0,0,1,2.206-1.448.658.658,0,0,1,.689-.138c.483,0,.345.483.621.69a7.211,7.211,0,0,0-.276,1.172c-.138.345-.758.758-.483,1.241a6.382,6.382,0,0,0,2-.138,1.664,1.664,0,0,1,1.862,0A8.341,8.341,0,0,1,269.677,1132.19Z" transform="translate(-115.242 -1123.414)"/><path d="M281.212,1146.113a2.54,2.54,0,0,0-.827-1.586c-1.172-.138-2.068-.965-3.31-.965-.483-.138-1.241.138-1.241-.62a5.618,5.618,0,0,0-.345-3.034,2.1,2.1,0,0,0-1.1-.207c-.345-.069-.483.69-.758.207a2.972,2.972,0,0,0-1.379,1.655,4.4,4.4,0,0,1,.414,2.137c-.069.345-.069.414-.345.62-.69.414-1.586.552-2.068,1.241-.483.207-.69.689-1.172.758l-.138.276a2.171,2.171,0,0,0-.827,1.31,6.754,6.754,0,0,0-.758,3.516c.069.345.276.483.276.827.138,1.034,1.448.965,2.137,1.1a9.683,9.683,0,0,0,3.241-.69c.414-.551,1.172-.551,1.379-1.31a2.91,2.91,0,0,0,1.1-2.275c.552-.482.138-1.31.552-1.862-.276-.207.138-.414-.069-.69.069-.138.138-.276.276-.276.138.138.276-.069.345.207.552-.069.621.689,1.172.62.483.621,1.379.483,2,.414.552.069,1.1-.483,1.379-.827C280.936,1146.527,281.143,1146.251,281.212,1146.113Zm-8.825,2.9a3.4,3.4,0,0,1-.414,1.172c-.345.276-.345.621-.827.621-.207-.069-.552-.069-.69-.207a3.327,3.327,0,0,1-.138-1.655,4.45,4.45,0,0,1,2.069-2.137c.276,0,.276.069.345.276A3.592,3.592,0,0,1,272.386,1149.009Z" transform="translate(-119.123 -1127.064)"/><path d="M247.154,1156.825c-.483.069-.965.276-1.379.345-.207.413-.552,0-.827.207l-.069-.138a4.776,4.776,0,0,1-1.379-.207c-.138-.414-.689-.207-1.034-.552a5.421,5.421,0,0,0-.965-.345c-.483,0-.758-.552-1.241-.414-.621-.414-1.241-.552-1.862-1.034-.414-.552.345-.827.345-1.31.9-.276,1.655-1.379,2.62-.758a11.244,11.244,0,0,0,5.24,1.724c.276.207.689.414.621.758.276.207.207.827.207,1.241C247.223,1156.411,247.223,1156.618,247.154,1156.825Z" transform="translate(-110.094 -1131.019)"/><path d="M245.339,1141.052c.571-.457,1.136-1.311.515-1.518a.915.915,0,0,0-.552-.759,21.034,21.034,0,0,0-3.585.069c-.827.138-1.724-.138-2.275.414-.689.069-1.517.207-2.206.276-.552-.138-.827.414-1.241.62-.345.483-1.034.69-1.241,1.172,0,1.31,1.448.552,2.137,1.034.276-.483.552.138.9-.138a4.532,4.532,0,0,1,2.551-.621c.345-.138.827-.138,1.241-.276a8.219,8.219,0,0,0,1.877-.272A8.283,8.283,0,0,1,245.339,1141.052Z" transform="translate(-109.001 -1126.76)"/><path d="M233.3,1149.855a.939.939,0,0,1-.069,1.1c-.414.069-.552.551-1.034.551-.207.345-.758.207-.9.69-.689,0-1.241.552-1.862.62a5.33,5.33,0,0,0-1.034-.138c-.138-.414-.827-.069-.965-.621a41.481,41.481,0,0,1-.069-8.274,23.625,23.625,0,0,0,.414-3.792c.483-.414.689-.828,1.31-1.034.345.069.345-.414.621-.482a.853.853,0,0,1,.965.276h.207c-.138.207.276.207.207.414.483.9-.345,1.31-.414,2.206a26.552,26.552,0,0,0-.552,7.722l.207.414c.345-.069.552-.276.9-.276.138-.345.345-.069.552-.138,0-.483.483-.207.689-.207.138.069.276,0,.483,0,.276.207.207.621.483.759C233.437,1149.717,233.368,1149.786,233.3,1149.855Z" transform="translate(-106.651 -1126.669)"/><path d="M218.036,1144.313c-.138.345-.62.276-.965.345a1.712,1.712,0,0,1-1.793-.345c-.138-.069-.345-.138-.345-.413-1.448-1.586-3.31-2.9-4.688-4.62,0-.207-.069-.414.069-.62a5.556,5.556,0,0,1,1.862-1.1,1.345,1.345,0,0,1,1.034,0c.621.483.758,1.31,1.517,1.724a24.606,24.606,0,0,0,2,1.793l.069-.069a20.087,20.087,0,0,0,1.655,1.862C218.105,1143.348,218.588,1143.969,218.036,1144.313Z" transform="translate(-101.385 -1126.368)"/><path d="M210.35,1156.51c-.207.689-.138,1.517-.414,2.206a5.377,5.377,0,0,1-.207,1.517c.276.345-.069.689.207.965-.276.345-.069.965-.414,1.241-.621.552-1.586.483-2.344.69-.483-.069-.965-.138-1.172-.62l-.138.138a2.7,2.7,0,0,0-.689-1.655c-.069-.414.483-.483.345-.827.345-.827,1.862,0,1.517-1.31a12.511,12.511,0,0,0,.414-3.861,3.792,3.792,0,0,0-.138-1.517c-.138-.069-.276-.345-.483-.345-.414.276-.414-.552-.827-.138-.207-.138-.345,0-.552.138-.414.965-.689,2-1.172,2.9a11.03,11.03,0,0,0-.9,2.068,15.127,15.127,0,0,0-1.31,2.9,1.872,1.872,0,0,1-.552,1.172c-.483.276-.689.758-1.241.552-.276.207-.483-.207-.689.138-.552-.138-.9.069-1.241-.483,0-.689.689-.965.689-1.655.758-.414.621-1.448,1.241-2,.689-1.793,1.379-3.654,2.068-5.378-.276.138-.689.483-.965.207a7.651,7.651,0,0,1-1.793.069.758.758,0,0,1-.414-.689c.138-.483.758-.827,1.034-1.241.552,0,1.172-.551,1.793-.758.758-.207,1.655-.138,2.206-.62.414,0,.758-.276,1.172-.207.689.138,1.241.621,2.068.414.345,0,.689-.483,1.034-.069.552.207,1.1-.552,1.655,0-.069.069-.069.207,0,.207l.138-.138a3.08,3.08,0,0,1,.552,1.172c-.138.276-.069.552-.207.9.138.207-.138.276-.069.414A30.072,30.072,0,0,1,210.35,1156.51Z" transform="translate(-97.698 -1130.29)"/><path d="M201.709,1139.9a32.347,32.347,0,0,0-4.62,6c-.276.759-.552,1.448-1.448,1.586-.138.276-.552-.069-.758.138-.483-.414-1.862.138-1.931-.827,1.31-1.793,3.172-3.379,4.344-5.309,1.172-1.172,2.137-3.241,4.137-3.378a5.178,5.178,0,0,0,.9.413C202.261,1139,202.537,1139.827,201.709,1139.9Z" transform="translate(-96.021 -1126.569)"/><path d="M183.111,1140.631c.483-.345.069-.552.345-1.1a5.2,5.2,0,0,0-.414-.9c-.069-.069-.138,0-.276.069a.415.415,0,0,1-.069-.276c-.069,0-.276,0-.276-.138a.9.9,0,0,1-.689.138c-.414,0-.414-.552-.414-.758-.414-.827.552-1.241.758-1.793a1.312,1.312,0,0,0-.069-.9c.207-.276-.207-.414-.276-.689-.207.069-.345-.345-.621-.207a2.056,2.056,0,0,1-.276-1.31c-.621-1.448-1.1-3.309-2.827-3.861-1.1-.276-2.068.207-3.172.207-.552.345-1.241-.138-1.793.276-.138.207-.483-.138-.483.207a.54.54,0,0,1-.552.069c0,.138-.207.276-.276.276-.552-.138-.345.827-.827.483a.457.457,0,0,1,.138-.483,3.112,3.112,0,0,1,1.517-2.413c1.31-1.241,2.344-2.827,3.792-3.792.552-.414.069-1.034.414-1.517-.207-.276-.414-.689-.758-.827a2.946,2.946,0,0,0-2.62,1.241c-.345.069-.276.552-.414.828-1.241,1.31-2.275,2.482-3.516,3.654l-.207-.069c-.414.069-.483.414-.965.414.069.345-.345.414-.483.62.069.276-.414.345-.483.69a2.223,2.223,0,0,0,.414,1.448,9.418,9.418,0,0,0-.069,3.1,10.677,10.677,0,0,0-.069,1.448c-.069.207-.138.414.069.552a9.054,9.054,0,0,0-.069,1.931c-.207.483.414.965,0,1.448a17.5,17.5,0,0,1,0,2.689,16.68,16.68,0,0,1-.069,4.551h-.069c-.069.276.138.482-.207.689a.987.987,0,0,0,.207.758c.138,0,.207.069.345.069.069.345.483.069.621.276a10.2,10.2,0,0,1,1.448.069c.207.069.276-.345.483-.069l-.069.069c-.069,0-.138.138-.138.207.207.345.207.621.552.759a.961.961,0,0,0,.621-.207c.345.483.689-.069,1.1.345.689-.069,1.172-.483,1.862-.483.138,0,.276-.207.414,0a3.829,3.829,0,0,1,1.586-.276,5.282,5.282,0,0,1,2.758-.345c.276-.207.758.276,1.1,0,.483.414.827-.345,1.379-.207.207-.483.621,0,.827-.414.414.138.345-.483.689-.483,0-.138-.069-.207-.069-.345.483-.069.069-.483.345-.689-.069-.069-.276-.069-.345-.207,0-.414-.414-.759-.689-1.035-.9-.345-.552-1.517-.621-2.206-.138-.069-.138-.345,0-.483.345.069,0-.207.207-.345C182.353,1141.32,182.766,1140.838,183.111,1140.631Zm-12.411,6.55.138-.207C170.769,1147.043,170.838,1147.181,170.7,1147.181Zm7.791-2.413-.483.345a29.121,29.121,0,0,1-4.068.621c-.9.483-2.206.069-2.758,1.1-.414-.483.138-.965-.276-1.448.207-.138-.069-.276-.138-.345a39.94,39.94,0,0,1-.069-4.964c0-1.1-.138-2.275-.069-3.241a47.65,47.65,0,0,1,.276-5.516l.138.069c.069,0-.207,0-.138.207.207-.138.207.345.414.069.276.345.758.345,1.034.552.552.207.827-.138,1.379-.069.689.138,1.31-.9,2.068-.552a.752.752,0,0,1,.827.138c.483.207.414.9.689,1.1.069.62.414,1.034.414,1.655-1.034.276-2.206.414-3.1.689a3.309,3.309,0,0,0-3.034,1.724.747.747,0,0,0,.552.758c.483-.345,1.034.276,1.517,0,1.448,0,2.827-.62,4.206-.758.552.414.207,1.241.276,1.793-1.1.414-2.275.138-3.241.828-.069.414-.758.207-.758.69a1.637,1.637,0,0,0-.689,1.172c.483.69,1.241.138,1.862.552.414-.207.965.069,1.241-.276.414.345,1.034-.345,1.517-.069.069-.069.138-.138.276-.069A12.777,12.777,0,0,1,178.492,1144.768Z" transform="translate(-88.041 -1121.375)"/><path d="M157.707,1146.686c-.345.276-.758.069-1.1.483-.621-.138-1.655.345-2-.621,0-.758-.621-1.31-.689-2.068-.414-.758-.621-1.586-1.034-2.413-.207-.207-.483-.483-.345-.827.552-.62,1.1-1.448,2.068-1.517a.527.527,0,0,1,.621-.138,1.685,1.685,0,0,1,.621.758c-.069.62.552,1.241.621,1.931.552.9.689,1.931,1.517,2.689a1.806,1.806,0,0,1,.069,1.034C158.121,1146.342,157.914,1146.479,157.707,1146.686Z" transform="translate(-83.46 -1127.017)"/><path d="M144.67,1149.156c-.483,0-.689.552-1.172.552-.414.414-1.1.345-1.586.414a2.292,2.292,0,0,1-1.517-.207c-.414.138-.621-.276-.965-.138-.621-.138-.414-.758-.689-1.1.276-.827-.276-1.586-.138-2.344,0-.9-.483-1.379-.207-2.206.138-.276-.276-.414-.069-.69.069-2.137.276-4,.345-6.205.345-.345-.069-.758.069-1.1a.628.628,0,0,1,0-.828c.414-.138.552-.621,1.034-.621.276-.344.689-.276.9-.62.345,0,.827-.276.965.069a3,3,0,0,1,.552,1.034,22.5,22.5,0,0,0-.621,3.654,21.921,21.921,0,0,0,.483,8.205c.138.345.552,0,.827.138l.621-.552v-.069c.69-.276,1.172-.9,2.068-.758.207.276.758.483.552.965.345.965-.483,1.655-1.172,2.275Z" transform="translate(-79.04 -1125.28)"/><path d="M122.765,1134.37a3.521,3.521,0,0,1-1.656.184c-.483-.345-.9.069-1.379.069-.483.207-1.1.138-1.586.414-.138.207-.414.207-.621.207-.345-.414-.965.345-1.034-.344h-.207c0-.069.069-.069,0-.069v-.069c-.069.276-.414.138-.621,0-.069-.207-.207-.138-.414-.138a23.341,23.341,0,0,0-.9,3.792c-.207.965-.276,2-.414,2.9a4.5,4.5,0,0,0-.138,1.655c.621.345.207,1.034.552,1.448-.621.965-.069,2.275-.621,3.31a2.1,2.1,0,0,1-2.275.345,1.088,1.088,0,0,1-.9-.138c-.069-.552.138-1.172.138-1.931,0-1.792.276-3.861.345-5.585.345-.276,0-.62.207-.965.621-1.586.621-3.585,1.1-5.171a6.539,6.539,0,0,1,.345-1.586c.069-1.172.414-2.206.483-3.379-1.241.069-2.206.9-3.516.621-.207-.345-.758.207-.9-.345-.414.069,0-.483-.414-.414.414-.414.207-1.172.9-1.172-.069-.414.345-.345.552-.552.069-.207.483-.483.689-.621,1.31-.069,2.689.345,3.447-.9.414.138.01-1.125.354-1.055.138-.345.055-.851.74-1.092.277.04,1.2-.005,1.462.407.19.3.055,1.662.2,1.809a23.637,23.637,0,0,1,3.723-.414c1.655-.276,3.241-.551,4.9-.689a1.976,1.976,0,0,1,.758,1.31c-.207.483-.276,1.241-.9,1.31a7.012,7.012,0,0,1-2.689.138c-2,.345-3.792.552-5.861.828-.414.345-.345.9-.552,1.31a28.762,28.762,0,0,0-.552,3.516c.276-.207.414-.69.827-.69,0-.345.483,0,.483-.414.483-.138.827.207,1.241-.138,1.1-.138,2.62-.276,3.723-.483.621.069,1.1-.138,1.655.276a1.759,1.759,0,0,1,.827.552c.138.483.015.625-.054,1.176-.148.148-.222.574-.74.5C123.209,1134.186,123.024,1134.259,122.765,1134.37Z" transform="translate(-69.752 -1122.124)"/><path d="M128.42,1148.418a3.217,3.217,0,0,1-2.482.483c-.689.276-1.1-.345-1.793-.138-.207-.069-.483,0-.689-.207-.483.276-1.034-.276-1.586-.138-.207-.414-.827-.138-1.034-.62-.414.207-.345-.345-.483-.483.207-.621.827-.965,1.241-1.379.414-.276,1.034-.9,1.655-.414a1.465,1.465,0,0,1,.483.207,2.557,2.557,0,0,0,1.586.207c.138-.069.345-.207.483,0l1.1-.138c.414.276,1.1.207,1.379.69C128.834,1146.9,129.316,1148.074,128.42,1148.418Z" transform="translate(-73.478 -1128.818)"/><path d="M102.61,1136.08a11.121,11.121,0,0,1-.207,2.965c-.138,1.241-.552,2.275-.689,3.585-.207.483-.069,1.172-.345,1.655a36.225,36.225,0,0,0-1.1,4.137c-.069.345-.414.9-.483,1.379.069.345-.138.69-.069.9h-.069a2.419,2.419,0,0,1-.414,1.1c.069.414-.483.483-.758.69-.552.138-.9-.069-1.241.207-.483.069-1.1.345-1.379-.276a53.862,53.862,0,0,0,2-5.585,47.823,47.823,0,0,0,1.586-7.447c.345-.965,0-1.93.138-2.9a2.274,2.274,0,0,0-.069-1.655c.483-.207.689-.827,1.241-1.034a1.7,1.7,0,0,1,.621-.276c.345.138.9-.483,1.1.069.483.69.138,1.448.276,2.206Z" transform="translate(-65.87 -1125.098)"/><path d="M94.8,1143.7c-.621.345-.9,1.172-1.586,1.655v.138c-.207-.207-.345.414-.69.483a14.79,14.79,0,0,1-1.793.965c-1.034,0-2.482.207-3.172-.828.069-.827-.345-1.586-.138-2.413a3.9,3.9,0,0,1,.138-1.517c.207-1.862.827-3.723.9-5.585.207-.276.069-.827.552-.758a2.229,2.229,0,0,1,1.655-.9c.345-.414.689.207.9.207a1.735,1.735,0,0,1,.207,1.31c-.345.207-.069.414-.345.62-.276,2.344-1.31,4.9-.689,7.171.345.138.552-.138.758-.414,0-.207.414-.345.345-.62a5.148,5.148,0,0,1,1.724-1.724c.138-.207.689-.276,1.034-.345.414,0,.483.62.689.9A2.455,2.455,0,0,1,94.8,1143.7Z" transform="translate(-63.236 -1125.542)"/><path d="M86.357,1128.957a1.63,1.63,0,0,1-.552.621c-.689.345-1.1-.345-1.862-.138-.621-.276-.758-1.034-1.448-1.31-.345-.758-1.172-.827-1.517-1.448a8.178,8.178,0,0,1-1.034-.621l-.414-.414c-.276-.758.689-1.172.9-1.586.689-.069,1.241-.827,1.931-.414a4.714,4.714,0,0,0,1.448,1.172c.621.621,1.448.828,1.931,1.655a3.3,3.3,0,0,0,.689,1.172c-.138.276.207.827-.138,1.1Z" transform="translate(-60.787 -1122.043)"/><path d="M79.536,1147.46c-.069-.138.069-.276-.138-.345l.069-.069c-.069-.138,0-.345-.207-.345-.069-.621-.758-.758-.827-1.379-.483-.621-.9-1.448-1.379-2.137a7.538,7.538,0,0,1-.9-1.172c-.414-.207-.138-.69-.345-.965,0-.827-.345-1.448-.276-2.206,0-.207.069-.414-.069-.552.207-.483-.345-.758-.138-1.172-.552-.689.069-1.655-.758-2.206-.345,0-.689-.345-1.034-.138a3.529,3.529,0,0,0-1.793,1.379c-.138-.069-.207,0-.276.069,0,.276-.069.483.069.69.758.9.9,2.482,1.034,3.654a4.2,4.2,0,0,0-.9.207c-.276.345-.758.138-1.1.413a4.482,4.482,0,0,0-2.068,1.172c-.276-.069-.345.345-.621.413-.276.483-1.034.9-1.172,1.448-.414.345-.345,1.034-.758,1.241a5.988,5.988,0,0,0,.689,2.689,7.941,7.941,0,0,0,1.172.965,7.96,7.96,0,0,0,3.792.276c.207-.207.414.138.552-.138.827.069,1.448-.621,2-1.034.621-.207.758-.965,1.172-1.379a3.391,3.391,0,0,1,.414,1.172c-.069.552.414.483.758.62.207,0,.138.345.414.138.758.62,1.448-.069,2-.138-.069-.276.345-.138.276-.345C79.743,1148.08,79.122,1147.736,79.536,1147.46Zm-6.757-2.689c-.069.207.069.552-.138.758.069.552-.414.827-.552,1.31a2.45,2.45,0,0,1-2.482-.138c-.483,0-.345-.552-.483-.827.207-.483.138-1.172.689-1.448.276-.207.414-.621.758-.828a.3.3,0,0,0,.414-.276l1.034-.069c.207-.138.483.138.621.276A1.319,1.319,0,0,1,72.779,1144.771Z" transform="translate(-56.586 -1125.515)"/><path d="M67.388,1130.015c-.689-.069-.827.828-1.448.345-1.655-.207-3.378.276-5.033.207l-.414.413c-.621,2.62-2.206,4.9-2.758,7.585-.138.827.689,1.172.276,2.068-.276.345-.689.414-1.034.69-.9-.138-2.137.345-2.689-.69a8.262,8.262,0,0,1,1.034-3.516c.552-1.724,1.31-3.379,2-5.1a3.093,3.093,0,0,0,.345-1.31,11.252,11.252,0,0,0-3.1.552,15.351,15.351,0,0,1-2.137-.827c-.138-.207,0-.483.069-.69l.138-.069c-.069-.414.414-.414.621-.689a3.451,3.451,0,0,1,2.344-.62,11.945,11.945,0,0,1,2.206-.207c.207-.138.552,0,.827-.138.345-.965.758-1.931,1.034-2.9l-.069-.069a3.546,3.546,0,0,1,1.862-1.448c.552.069,1.586-.207,1.379.759.138.414-.276.758-.276,1.172a9.892,9.892,0,0,0-.965,2.344l.207.138c1.517-.207,3.034-.069,4.551-.414.345-.069.965-.069,1.1.483A2.121,2.121,0,0,1,67.388,1130.015Z" transform="translate(-52.367 -1122.067)"/></g><path d="M249.92,1085.5c-.483.9-1.448,1.034-2.137,1.793a11.983,11.983,0,0,1-5.24,1.655,1.626,1.626,0,0,1-.827-.069,4.105,4.105,0,0,1-3.654-2c-.414-.689-.414-1.586-.827-2.344.069-.552-.276-1.034-.276-1.586-.138-1.1-.207-2.206-.345-3.24a1.378,1.378,0,0,0-.9-.138,6.041,6.041,0,0,1-.689-.552,2.2,2.2,0,0,1,1.034-1.517c.345.138.345-.276.621-.276.689-.345.483-1.31.621-1.931a2.8,2.8,0,0,0-1.31-.552c-.276-.276-.758-.138-.9-.552-.483-1.034.9-1.172,1.034-1.862.689.069,1.034-.9,1.724-.414.138.069.276,0,.414,0,.414-.69.621-1.517,1.034-2.206.276-.9.276-1.862.965-2.482a3.206,3.206,0,0,1,2.137-.827c.276.138.345.414.621.414,0,.276.207.62,0,.827.207.276-.138.483-.207.758a14.343,14.343,0,0,0-1.655,3.93c.345.276,1.034-.138,1.448.069a3.267,3.267,0,0,1,1.172-.069,2.011,2.011,0,0,1,.758,1.931c-.276,1.034-1.517.689-2.275.965-.345-.345-.758-.207-1.172-.276s-1.034,0-.965.552c0,.414-.414,1.1.069,1.379a14.272,14.272,0,0,1,3.447-.276c.207.207.414-.069.689.069a1.835,1.835,0,0,1,.758.69,1.164,1.164,0,0,1-.552,1.172c-.345.069-.483.414-.827.483a31.592,31.592,0,0,0-3.792.483l-.345.276a14.513,14.513,0,0,0,.552,3.861c.414.9.414,2,1.517,2.482a5.151,5.151,0,0,0,3.516-.069c.552-.276,1.241-.414,1.448-1.1a4.991,4.991,0,0,1,2.137-1.793c.138.138.345,0,.483,0,.483.207.483.828.9.965-.138.345.276.414.069.9C250.058,1085.086,249.782,1085.362,249.92,1085.5Z" transform="translate(-56.708 -3.827)"/><path d="M221.567,1066.281c-.207.138-.483.483-.758.345-.276.207-.483.138-.758.276-.276-.069-.621.069-.758-.276-.138-.069-.207.138-.345.207-.345-.069-.69-.69-1.1-.207-.276-.207-.621,0-.965.069-2.275.138-4.482,0-6.619.345-.207-.207-.414,0-.69-.069-.276.207-.138.62-.414.828-.965,4.482-1.862,8.963-2.62,13.514a6.567,6.567,0,0,0-.207,2.827.252.252,0,0,1,.138.345c-.207.276-.207.827-.758.758-.207.689-.689-.207-.827.483a2.326,2.326,0,0,1-.827-.276c-.069-.138-.276.138-.207-.138-.207,0-.552.069-.758-.069-.414-.9.276-1.862.414-2.758l.827-3.723a11.389,11.389,0,0,1,.345-2.62,7.882,7.882,0,0,0,.483-2.206c.345-1.448.552-3.034.965-4.482-.069-.62.621-1.1.345-1.862a.3.3,0,0,0,.069-.345,9.264,9.264,0,0,0-2.344.207,10.984,10.984,0,0,0-2.275.621c-.276,0-.621.138-.827,0-.414,0-.621-.414-.965-.483a.987.987,0,0,1-.207-1.034,5.576,5.576,0,0,1,2-1.1,22.831,22.831,0,0,0,4.275-.621,2.3,2.3,0,0,0,1.172-.069c.138-.69,1.034-.345,1.034-1.1-.069-.414.345-.552.552-.759.345,0,.689-.689,1.172-.345.207-.138.483.069.689.138.069.62-.414,1.172-.552,1.655.069.276.621.138.827.138,1.862.207,3.378-.207,5.378-.138a13.787,13.787,0,0,0,4.206-.621,1.717,1.717,0,0,1,1.172,1.448C221.7,1065.522,221.773,1065.936,221.567,1066.281Z" transform="translate(-45.798 -2.603)"/><path d="M221.612,1075.61a10.309,10.309,0,0,0,1.656.112,1.4,1.4,0,0,0,.712-.722c.345-.207.138-.552.138-.9a2.145,2.145,0,0,0-1.862-1.1c-.207.345-.483-.069-.689.207a6.435,6.435,0,0,0-2.275.138c-.827.414-1.724.207-2.551.69a15,15,0,0,0-1.862.758c-.345.414-.758.207-1.1.621-.138.138-.138.345-.345.276-.138.207-.483.069-.414.414-.414.138-.069.552-.276.827a.519.519,0,0,0,.483.345c.758-.069,1.31.345,2.068.069.621-.207.758-.689,1.448-.689.345-.414.965-.345,1.448-.552.758,0,1.387-.8,2.215-.314C220.806,1075.812,221.164,1075.588,221.612,1075.61Z" transform="translate(-49.798 -5.876)"/><path d="M224.289,1087.59c-.483.345-1.1.276-1.586.483-.758-.552-1.517.276-2.206-.345a.3.3,0,0,1-.345.069l-.138-.069c-1.862-.207-3.723-.138-5.24-1.379-.483-.62.345-.827.414-1.448.345-.414.9-.414,1.241-.689a.969.969,0,0,1,.965-.138,4.385,4.385,0,0,0,1.517.965,8.8,8.8,0,0,0,3.31-.138c.483-.276.827.207,1.31.069.276.414,1.1.483,1.034,1.034-.069.138.138.207.207.276C224.565,1086.693,224.7,1087.176,224.289,1087.59Z" transform="translate(-50.383 -9.295)"/><path d="M192.682,1079.332c-.552.345-.758.758-1.379,1.1,0,.276-.276.483-.552.621-.276.413-.621,1.1-1.1,1.172-.414.9-1.586,1.241-2.206,1.793-.414-.207-.689.345-1.1.069-.276-.138-.552.345-.758.069-.689.276-1.241-.345-1.931-.414a2.149,2.149,0,0,1-1.1-1.1c-.621-.965-1.1-1.931-1.724-2.9-.414-.207-.621-.552-1.034-.827-1.862-.345-2.827,1.379-3.861,2.482a1.474,1.474,0,0,1-.621,1.241c.069.413-.276.552-.621.483a1.051,1.051,0,0,1-.827.483c-.345-.276-.69.414-.9-.138-.276.069-.621.207-.9,0-.345-.345-.9-.483-.827-1.034a.582.582,0,0,1,.138-.483c.069,0,.138.138.138,0-.276-.551.483-.758.689-1.241a6.19,6.19,0,0,0,1.034-1.241,72.089,72.089,0,0,1,3.93-6.757c.414-1.172,1.379-2.344,1.931-3.516.345-.345.621-.965.965-1.241a2.413,2.413,0,0,1,2.62-.276c.207.276.069.828.069,1.241a21.031,21.031,0,0,0-2.965,4.344c-.069.276-.621.758-.758,1.241-.483.62-.621,1.172-1.034,1.793,0,.069,0,.069.069.138,1.862-.482,4.206-.414,5.447,1.241.069.414.552.552.552,1.034.621.9,1.034,2.275,2.344,2.482v.138c.207.069.552-.207.758,0a15.631,15.631,0,0,0,2.689-2.965,4.8,4.8,0,0,1,1.724-1.035c.069-.345.483-.069.621-.138.345.138.207.552.621.483C193.165,1078.09,192.82,1078.918,192.682,1079.332Z" transform="translate(-36.909 -4.139)"/><path d="M151.514,1064.966c.138.138.276.069.414,0,1.724-.138,3.172-.758,4.964-.758.207.207.483-.276.621,0,.345-.138.758,0,1.172-.138a2.157,2.157,0,0,0,.621-.758,2,2,0,0,0-.345-1.517c-.276-.621-1.034-.483-1.586-.483-2.206,1.034-4.757,1.1-7.24,1.517-.414.069-.138-.414-.276-.552.069-.345.069-.827.414-.965.069-.276.207-.552.069-.758.207-.345-.207-.621-.345-.759-.138,0-.276.138-.414,0a2.8,2.8,0,0,0-1.31.276c-1.379.552-1.31,2.138-1.517,3.379-1.517,0-3.241.276-4.757.207-.483-.414-1.034.207-1.586.276-.276.414-1.1.69-1.1,1.172-.276,0-.207.345-.207.552.207.345.414.69.9.621.207.414.689.069.965.414a7.087,7.087,0,0,1,1.172-.069c.345-.414.827-.207,1.31-.414.827-.138,1.655-.138,2.482-.276.138.276.345-.069.621,0a8.965,8.965,0,0,1,.207,1.517c-.207.758.069,1.586-.207,2.344a7.9,7.9,0,0,1-1.586.69c-1.379.9-2.965,1.172-4.206,2.344-1.172.276-1.724,1.448-2.758,2.069-.069.207-.138.414-.345.483-.483.9-1.31,1.931-.552,2.9a7.864,7.864,0,0,0,1.034,2.344,1.939,1.939,0,0,0,1.655.9c1.034.345,2.137,0,3.241.138.621-.414,1.241-.207,2-.551.069,0,.276-.276.345-.069.207-.276.414.138.621-.207a6.078,6.078,0,0,0,1.655-.759c.689-.207.758.9,1.172,1.241.483.069.345.758.689.965.552.621,1.31.345,1.931.483.345-.276,1.034-.069,1.31-.552.69-.138.345-.965.621-1.448-.414-.345-.552-.9-1.034-1.172l-.138.069c-.138-.069-.345-.069-.483-.207-.207-.414-.621-.69-.758-1.1.207-1.034,1.31-1.586,1.862-2.344a18.637,18.637,0,0,0,1.379-2.137c.276-.207.276-.621.689-.621.207.414.552.828.758,1.241.138.965.414,1.724.483,2.689-.069.758,0,1.517-.069,2.275-.138,1.1-1.31,1.31-1.655,2.206-.069.345-.414.552-.345.965.138.621.827.483,1.31.689l.069-.207a1.574,1.574,0,0,0,1.241-.069c.414.413.276-.483.69-.207.069-.207.276-.414.207-.62.069-.207.207-.552.414-.621-.069-.345.345-.482.276-.758.758-.621.552-1.655.9-2.482a17.509,17.509,0,0,1,0-2.689c-.276-.758-.207-1.655-.552-2.413.069-.758-.69-1.1-.827-1.861-.483-.276-.552-.9-1.034-1.1a4.5,4.5,0,0,0,.552-1.172,1.766,1.766,0,0,0-.9-.965c-.276.069-.689,0-.9.276-.552,0-.758.9-1.379.689-.621-.069-1.31-.207-1.931-.276-.965.138-1.724.345-2.62.414-.207-.62.069-1.379-.138-2,.345-.62-.138-1.31.414-1.931A7.083,7.083,0,0,0,151.514,1064.966Zm-5.585,13.445c-.207,0-.483.276-.758.138-.414.414-1.1.276-1.517.552-.689.207-1.31-.069-1.862.207a2.556,2.556,0,0,1-1.931-1.792c-.276-1.172.758-1.724,1.517-2.482a23.1,23.1,0,0,1,3.585-2.068,4.5,4.5,0,0,1,1.655-.414c.138.9-.138,2,.345,2.827a22.83,22.83,0,0,1,.276,2.275C146.963,1078.2,146.343,1078.066,145.929,1078.411Zm3.723-6.481a3.827,3.827,0,0,1,2.758-.276c.276.207.069.62-.069.9-.414.482-.552,1.241-1.172,1.517-.069.552-.621.965-1.034,1.31a10.381,10.381,0,0,1-.414-2.482A2.214,2.214,0,0,1,149.652,1071.93Z" transform="translate(-26.216 -1.771)"/><path d="M126.39,1088.611c-.758-.207-1.31.414-2.068,0a27.358,27.358,0,0,1-2.827-1.448c-.414-.207-.965-.207-1.172-.621-.207-.483.414-.758.345-1.172.276,0,.345-.483.689-.483.414-.276.621-.759,1.172-.689a6.809,6.809,0,0,0,1.931.827c.414.207.689.689,1.241.62.689.552,1.862.483,2.068,1.586C127.769,1088.059,126.942,1088.266,126.39,1088.611Z" transform="translate(-21.088 -9.351)"/><path d="M112.358,1064.212c-.621-.207-1.586.069-2.068-.69a22.855,22.855,0,0,0-4.9-3.861,15.615,15.615,0,0,0-2.758-2,1.39,1.39,0,0,1,.689-1.448c.414-.483.758-.276,1.31-.621.827-.138,1.1.621,1.724.9,1.448,1.034,2.827,2.069,4.206,3.1l.138-.069c1.034,1.379,3.654,1.724,2.965,3.93C113.392,1064.005,112.772,1063.936,112.358,1064.212Z" transform="translate(-15.605 -0.466)"/><path d="M108.354,1077.847a16.738,16.738,0,0,1-3.585,3.034,5.511,5.511,0,0,0-1.517.9c-.689.414-.9,1.31-1.724,1.172-.276.345-.758.138-1.1.207-.207-.345-.621.207-.9-.207-.138-.207-.414-.276-.414-.552a3.712,3.712,0,0,0,.207-.689c.276,0,.138-.483.414-.621l.827-.62c.069.138.138,0,.207,0,.207-.552.827-.414,1.241-.621.965-.276,1.655-1.034,2.551-1.379a10.031,10.031,0,0,0,1.586-1.31c.758-.483.483-1.448.621-2.275-.414-.483-.276-1.241-.827-1.586-.069-.345-.483-.62-.758-.9a2.861,2.861,0,0,0-2.482-.138c-1.034-.069-1.793,1.034-2.827.965-.138.414-.621.207-.758.621l-.414.207a.24.24,0,0,0-.069-.138c-.414.413-.9-.138-1.31.138-.414-.413-1.241,0-1.31-.758-.276-.689.414-1.241.414-1.93a4.578,4.578,0,0,0,.414-1.379c.207-.138.138-.414.138-.62l.276-2.138c-.207-.483.069-1.1.069-1.586.138-.276.276-.621.621-.621.483-.276.621-1.241,1.379-1.034.207-.069.552.069.827.069.483.965-.414,1.724-.207,2.758,0,1.172-.345,2.413-.414,3.654.207.276.414-.207.621.069.276-.345.758-.138,1.1-.482.345-.069.689-.138,1.172-.207a5.962,5.962,0,0,1,4.62.069c.9.069.965,1.034,1.724,1.31.069.552.758.827.621,1.448.138.207.138.551.345.758C109.665,1075.02,109.8,1076.812,108.354,1077.847Z" transform="translate(-13.532 -3.068)"/><path d="M85.006,1070.159c-.276-.414-.621-.69-.621-1.241-.483-.138-.621-.552-1.172-.552-.689-.414-1.724-.9-2.551-1.31l-.207-1.931c0-.552-.207-.965.138-1.379.9-.344,1.862-.413,2.689-.758.276.138.552-.345.827-.138.207-.345.9-.414.9-.965-.138-.483.138-.828-.069-1.241-.621-.827-1.448-.276-2.275-.207a9.977,9.977,0,0,1-2.413.827c-.483-.551-.207-1.241-.414-1.861a2.8,2.8,0,0,0,0-1.31c-.345-.207,0-.827-.552-.759.207-.414.758-.069,1.034-.276a9.018,9.018,0,0,0,3.034-.069,1.727,1.727,0,0,0,.9-1.172c.345-.62-.414-1.1-.689-1.448-1.034-.758-2.206.207-3.447.138-.9.207-2,.345-2.9.552-.414-.069-.689.276-1.1.069-1.586.345-3.378.483-4.964.759a2.212,2.212,0,0,0-1.862.483c-.276.069-.483.483-.758.345.069.62-1.1.827-.552,1.586.345,0,.9.689,1.172.207.069.69.689.069,1.034.345a18.76,18.76,0,0,1,3.379-.9c1.379-.138,3.1-.414,4.482-.552.069.207-.207.138-.276.345a1.765,1.765,0,0,0-1.379,1.448c.069.276.483.207.345.552a2.666,2.666,0,0,1,.345,1.586c-.276.62-1.241.207-1.793.414-.621-.276-1.172-.069-1.862-.276-.414.345-1.034.207-1.31.758-.552-.138-.276.552-.758.552a1.165,1.165,0,0,0-.207.689c.069.483.689.276,1.034.552.345,0,.621.276.9.138v.138c.414-.138.827.276,1.172-.069,0,0,.138-.069.207,0a12.293,12.293,0,0,0,2.758,0,5.533,5.533,0,0,1,.414,2.069c.276,1.241-1.379.758-2,1.31a16.353,16.353,0,0,0-2.206,1.034,34.853,34.853,0,0,0-3.034,2.275c-.414,0,0,.483-.483.483-.276.69-.689.828-1.034,1.517.069.276-.345.345-.207.62a4.227,4.227,0,0,0,.827,3.241c.827.758,1.172,1.793,2.206,2.138.414-.069.9.207,1.1,0,.483.276,1.034,0,1.517-.069.345.207.552-.414.965-.207a10.376,10.376,0,0,0,4.62-5.24c0-.689.621-1.31.483-2.068a3.551,3.551,0,0,1,1.379.62c.207.069.345-.138.552-.138.827.552,1.379-.138,2.206-.276l.483-.483C85.212,1070.779,85.006,1070.434,85.006,1070.159Zm-7.929,2.068c.069.758-.483,1.31-.483,2.137a4.481,4.481,0,0,1-2.62,2.137c-.138-.138-.207-.069-.345-.069-.689.207-.9-.551-1.448-.758-.138-.483-.689-.759-.621-1.31-.207-.345,0-.9.138-1.31.621-.69,1.31-1.1,1.793-1.724.414.069.414-.414.758-.483.552-.069,1.172-.689,1.793-.62.414-.345.9-.069,1.31-.069l.138.138A4.627,4.627,0,0,1,77.077,1072.227Z" transform="translate(-4.8 0)"/><path d="M62.744,1075.1a4.878,4.878,0,0,1-.965.689,2.806,2.806,0,0,0-1.586.69c-.138-.138-.276,0-.276.138-.207-.207-.345.207-.552.207a1.474,1.474,0,0,1-1.241.62v.138c-.276.138-.414-.138-.621,0a.241.241,0,0,0-.138-.069c.069,0,.069-.069.069-.138h-.069c-.207,0-.276.345-.483.069-.069-.138-.276.138-.414-.069-.207-.345-1.1-.413-.689-.965-.138-.069-.138-.138-.138-.207h.138c0-.69.207-1.448.276-2.138-.207-1.448.138-2.758-.138-4.137.138-.759.069-1.448.276-2.207a30.456,30.456,0,0,1,.069-4.344c-.207-.276-.069-.689-.276-1.034a1.144,1.144,0,0,1,.552-1.034c.827-.069,1.724-1.1,2.62-.414.414.345.138.827.345,1.172-.414.207-.069.552-.207.828-.138,1.861.069,3.861-.207,5.653.207.9-.138,1.655,0,2.482a9.479,9.479,0,0,0,.138,3.1,6.435,6.435,0,0,0,1.793-1.034c.414-.138.965-.552,1.448-.138.345-.069.827-.069.965.345A2.072,2.072,0,0,1,62.744,1075.1Z" transform="translate(-1.017 -2.044)"/></g></svg>