<svg xmlns="http://www.w3.org/2000/svg" width="28" height="27.841" viewBox="0 0 28 27.841"><g transform="translate(0 -0.079)"><path d="M11.1,21.045a9.4,9.4,0,0,0,9.461-9.461c0-.144,0-.287-.01-.43a6.766,6.766,0,0,0,1.659-1.722,6.637,6.637,0,0,1-1.91.523A3.336,3.336,0,0,0,21.76,8.116a6.664,6.664,0,0,1-2.111.807,3.328,3.328,0,0,0-5.667,3.033A9.44,9.44,0,0,1,7.128,8.482a3.328,3.328,0,0,0,1.029,4.439,3.3,3.3,0,0,1-1.506-.416c0,.014,0,.028,0,.042a3.327,3.327,0,0,0,2.668,3.26,3.32,3.32,0,0,1-1.5.057,3.329,3.329,0,0,0,3.106,2.31A6.673,6.673,0,0,1,6.793,19.6,6.763,6.763,0,0,1,6,19.551a9.414,9.414,0,0,0,5.1,1.494" transform="translate(0.542 0.066)" fill="#fff"/><path d="M-1003.5-1350.079h0v-.8a13.034,13.034,0,0,0,7.834-3.783A13.114,13.114,0,0,0-991.8-1364a13.112,13.112,0,0,0-3.866-9.333,13.031,13.031,0,0,0-7.834-3.783v-.8a13.967,13.967,0,0,1,8.885,4.531A13.968,13.968,0,0,1-991-1364a13.969,13.969,0,0,1-3.615,9.389,13.967,13.967,0,0,1-8.884,4.531Zm-3,0h0a13.965,13.965,0,0,1-8.884-4.531A13.97,13.97,0,0,1-1019-1364a13.969,13.969,0,0,1,3.615-9.389,13.965,13.965,0,0,1,8.885-4.531v.8a13.034,13.034,0,0,0-7.835,3.783A13.112,13.112,0,0,0-1018.2-1364a13.114,13.114,0,0,0,3.865,9.334,13.04,13.04,0,0,0,7.835,3.783v.8Z" transform="translate(1019 1378)" fill="#fff"/></g></svg>