<svg xmlns="http://www.w3.org/2000/svg" width="261.356" height="43.56" viewBox="0 0 261.356 43.56"><rect width="4.152" height="1.489" rx="0.441" transform="translate(79.677 17.556)" fill="#000"/><rect width="4.152" height="1.46" rx="0.441" transform="translate(79.677 13.731)" fill="#000"/><rect width="7.206" height="9.974" rx="0.447" transform="translate(122.837 17.068)" fill="#000"/><rect width="2.234" height="2.434" rx="0.447" transform="translate(195.587 26.98)" fill="#000"/><path d="M643.921,216.388h-1.63a.677.677,0,0,0-.671.592l-.226,1.824a.675.675,0,0,0,.671.759h1.63a.677.677,0,0,0,.671-.592l.226-1.824A.676.676,0,0,0,643.921,216.388Z" transform="translate(-617.706 -196.356)" fill="#000"/><rect width="4.123" height="1.489" rx="0.447" transform="translate(72.633 17.556)" fill="#000"/><rect width="4.123" height="1.46" rx="0.447" transform="translate(72.633 13.731)" fill="#000"/><rect width="2.458" height="3.078" rx="0.447" transform="translate(51.498 19.316)" fill="#000"/><rect width="1.89" height="2.027" rx="0.447" transform="translate(233.223 22.942)" fill="#000"/><rect width="1.856" height="2.027" rx="0.447" transform="translate(228.981 22.942)" fill="#000"/><rect width="1.89" height="1.993" rx="0.447" transform="translate(233.223 18.902)" fill="#000"/><rect width="1.856" height="1.993" rx="0.447" transform="translate(228.981 18.902)" fill="#000"/><path d="M625.752,203.367v43.56H887.108v-43.56Zm192.966,11.58a.687.687,0,0,1,.687-.687h6.5a.686.686,0,0,1,.685.687v1.242a.686.686,0,0,1-.685.687h-6.5a.687.687,0,0,1-.687-.687ZM768,216.956a.686.686,0,0,1,.685-.685h5.245a45.075,45.075,0,0,1,7.671.716.689.689,0,0,1,.561.678v2.368a.687.687,0,0,1-.8.676q-1.724-.283-3.229-.432-1.853-.182-4.2-.206h-5.245a.686.686,0,0,1-.685-.685Zm13.412,7.679,0,2.37a.687.687,0,0,1-.8.676q-1.722-.286-3.228-.444a40.742,40.742,0,0,0-4.2-.194h-3.914a.686.686,0,0,1-.685-.685v-2.428a.686.686,0,0,1,.685-.687h3.914a42.482,42.482,0,0,1,7.674.713A.69.69,0,0,1,781.414,224.635Zm-122.748-1.945a.687.687,0,0,1-.687.687H656.5a.686.686,0,0,0-.681.6l-.244,1.849a.685.685,0,0,0,.681.776h1.113a.687.687,0,0,1,.687.687v1.637a.687.687,0,0,1-.687.687h-1.632a.686.686,0,0,0-.682.605l-.522,4.407a.685.685,0,0,1-.681.605h-1.362a.685.685,0,0,1-.681-.767l.484-4.084a.686.686,0,0,0-.682-.767h-1.629a.687.687,0,0,0-.682.6l-.544,4.415a.684.684,0,0,1-.681.6h-1.337a.685.685,0,0,1-.681-.767l.484-4.084a.686.686,0,0,0-.682-.767h-.778a.687.687,0,0,1-.687-.687v-1.637a.687.687,0,0,1,.687-.687h1.289a.687.687,0,0,0,.682-.6l.229-1.85a.686.686,0,0,0-.681-.77h-.908a.686.686,0,0,1-.685-.687v-1.637a.686.686,0,0,1,.685-.687h1.477a.684.684,0,0,0,.681-.6l.464-3.748a.687.687,0,0,1,.681-.6H650.3a.687.687,0,0,1,.682.767l-.4,3.419a.685.685,0,0,0,.681.767h1.657a.685.685,0,0,0,.681-.6l.464-3.748a.687.687,0,0,1,.681-.6h1.338a.686.686,0,0,1,.681.767l-.4,3.419a.686.686,0,0,0,.681.767h.939a.687.687,0,0,1,.687.687Zm28.164-.715a.687.687,0,0,1-.687.687h-2.162a.686.686,0,0,0-.685.685v5.915a.687.687,0,0,1-.687.687h-2.437a.436.436,0,0,1-.435-.436v-.025a.436.436,0,0,0-.436-.435h-1.621a.436.436,0,0,0-.436.435v.025a.436.436,0,0,1-.435.436h-2.437a.687.687,0,0,1-.687-.687v-5.915a.686.686,0,0,0-.685-.685h-1.243a.686.686,0,0,0-.685.685v7.731a.686.686,0,0,0,.685.685h13.517a.687.687,0,0,1,.687.687v2.016a.687.687,0,0,1-.687.687H671.755a.686.686,0,0,0-.685.685v.032a.687.687,0,0,1-.687.687h-2.259a.686.686,0,0,1-.685-.687V223.347a.686.686,0,0,0-.687-.685h-2.016a.687.687,0,0,1-.687-.687v-2.016a.687.687,0,0,1,.687-.687h2.016a.686.686,0,0,0,.687-.685V215.02a.686.686,0,0,1,.685-.687h2.259a.687.687,0,0,1,.687.687v3.567a.686.686,0,0,0,.685.685H673a.686.686,0,0,0,.685-.685v-4.075a.686.686,0,0,1,.687-.685h2.187a.686.686,0,0,1,.685.685v4.075a.686.686,0,0,0,.687.685h1.12a.686.686,0,0,0,.687-.685v-3.857a.686.686,0,0,1,.685-.687h2.187a.687.687,0,0,1,.687.687v3.857a.686.686,0,0,0,.685.685h2.162a.687.687,0,0,1,.687.687Zm27.991,6.678q-.242.281-.5.618-.475.613-.805,1.137a.67.67,0,0,1-.8.277,16.072,16.072,0,0,1-2.107-.942.675.675,0,0,0-1,.589v5.454a.675.675,0,0,1-.675.676h-2.33a.675.675,0,0,1-.674-.676v-7.416a.527.527,0,0,1,.527-.527h.026a.515.515,0,0,0,.369-.876,14.674,14.674,0,0,1-1.4-1.589.674.674,0,0,0-.536-.27H703.23a.671.671,0,0,0-.526.258,15.763,15.763,0,0,1-1.282,1.432.564.564,0,0,0,.386.973h.037a.527.527,0,0,1,.527.527v1.24a7.021,7.021,0,0,1-5.176,7,.67.67,0,0,1-.791-.26q-.309-.456-.787-1.031c-.2-.232-.381-.447-.562-.644a.676.676,0,0,1,.244-1.1,5.725,5.725,0,0,0,2.532-1.589,3.991,3.991,0,0,0,.908-2.529v-.436a17.567,17.567,0,0,1-3.408,1.789.667.667,0,0,1-.8-.252q-.327-.482-.791-1.053c-.181-.223-.357-.429-.523-.618a.67.67,0,0,1,.294-1.076,17.319,17.319,0,0,0,2.19-.92q.721-.364,1.369-.765a.517.517,0,0,0-.277-.954h-.914a.674.674,0,0,1-.674-.675v-9.351a.673.673,0,0,1,.674-.675h16.393a.676.676,0,0,1,.676.676v9.346a.676.676,0,0,1-.676.678h-.406a.678.678,0,0,0-.32,1.275q.357.184.736.358a17.272,17.272,0,0,0,2.21.833A.672.672,0,0,1,714.821,228.653Zm22.122-7.335c0,.023,0,.048,0,.071a16.465,16.465,0,0,1-1.377,5.521,13.463,13.463,0,0,1-2.675,3.957,15.745,15.745,0,0,1-3.2,2.494,22.925,22.925,0,0,1-3.05,1.5,17.208,17.208,0,0,1-2.311.762l-.086.02a.684.684,0,0,1-.834-.67v-2.537a.684.684,0,0,1,.513-.664c.125-.034.272-.072.443-.12a13.927,13.927,0,0,0,2.288-.907,12.305,12.305,0,0,0,2.832-1.985,10.884,10.884,0,0,0,2.385-3.075,11.9,11.9,0,0,0,1.113-3.627.692.692,0,0,0-.679-.8H727.87a.69.69,0,0,0-.573.313,21.544,21.544,0,0,1-2.532,3.221,17.828,17.828,0,0,1-2.214,1.985.591.591,0,0,1-.933-.481v-3.253a.687.687,0,0,1,.247-.527l.3-.254a7.65,7.65,0,0,0,1.2-1.44,16.965,16.965,0,0,0,1.319-2.362,12.919,12.919,0,0,0,.894-2.775.693.693,0,0,1,.672-.553H728.7a.691.691,0,0,1,.675.828q-.048.244-.1.479c-.029.124-.058.249-.088.37a.684.684,0,0,0,.668.841h6.406a.686.686,0,0,1,.687.685Zm22.876,12.276a.686.686,0,0,1-.685.687H745.278a.686.686,0,0,1-.685-.687V217.246a.686.686,0,0,1,.685-.685h13.856a.686.686,0,0,1,.685.685Zm22.78.719a.686.686,0,0,1-.8.676q-1.722-.286-3.229-.443a40.474,40.474,0,0,0-4.175-.194h-6.165a.686.686,0,0,1-.687-.685v-2.429a.685.685,0,0,1,.687-.685h6.165a44.683,44.683,0,0,1,7.648.715.688.688,0,0,1,.558.679ZM797.87,215.7a40.822,40.822,0,0,1-2.01,3.925.7.7,0,0,0-.092.34v15.862a.685.685,0,0,1-.685.685h-2.162a.686.686,0,0,1-.687-.685v-9.214a.686.686,0,0,0-1.179-.478l-.065.068a.684.684,0,0,1-1.108-.175q-.23-.473-.541-1.063-.429-.809-.767-1.358a.69.69,0,0,1,.12-.87,23.268,23.268,0,0,0,3.189-3.739,25.739,25.739,0,0,0,2.552-4.559.684.684,0,0,1,.844-.386l2.177.727A.684.684,0,0,1,797.87,215.7Zm13.477,18.185a3.544,3.544,0,0,1-1.318,1.852,4.284,4.284,0,0,1-2.4.581h-3.7a6.128,6.128,0,0,1-2.615-.447,2.539,2.539,0,0,1-1.3-1.514,9.494,9.494,0,0,1-.375-3.026V214.9a.685.685,0,0,1,.687-.685h2.185a.685.685,0,0,1,.687.685V220.9a.688.688,0,0,0,1.054.582,47.722,47.722,0,0,0,3.917-2.789.687.687,0,0,1,.953.1l1.663,1.99a.684.684,0,0,1-.152,1.017,57.86,57.86,0,0,1-7.032,3.779.686.686,0,0,0-.4.622v5.152a6.224,6.224,0,0,0,.072,1.137.589.589,0,0,0,.315.449,2.215,2.215,0,0,0,.824.108h2.857a1.017,1.017,0,0,0,.834-.338,2.554,2.554,0,0,0,.412-1.186c.057-.367.111-.867.158-1.5a.684.684,0,0,1,.993-.564q.3.157.641.309a11.81,11.81,0,0,0,1.148.444.69.69,0,0,1,.478.735A13.5,13.5,0,0,1,811.347,233.882Zm15.119.755a.686.686,0,0,1-.687.685h-3.84a.436.436,0,0,0-.437.436.436.436,0,0,1-.436.435h-1.9a.686.686,0,0,1-.685-.685v-7.029a.686.686,0,0,1,.685-.685h6.617a.686.686,0,0,1,.687.685Zm.072-8.329a.687.687,0,0,1-.687.687h-6.592a.686.686,0,0,1-.685-.687v-1.242a.686.686,0,0,1,.685-.687h6.592a.687.687,0,0,1,.687.687Zm0-3.341a.687.687,0,0,1-.687.687h-6.592a.686.686,0,0,1-.685-.687v-1.242a.686.686,0,0,1,.685-.687h6.592a.687.687,0,0,1,.687.687Zm.283-2.654H818.05a.687.687,0,0,1-.687-.687v-1.363a.687.687,0,0,1,.687-.687h8.771a.686.686,0,0,1,.685.687v1.363A.686.686,0,0,1,826.821,220.313Zm13.733,4.106a.686.686,0,0,1-.685.687H836.4a.686.686,0,0,0-.685.685v10.079a.687.687,0,0,1-.687.687h-2.21a.687.687,0,0,1-.687-.687V225.792a.686.686,0,0,0-.687-.685h-3.4a.687.687,0,0,1-.687-.687v-2.113a.685.685,0,0,1,.687-.685h3.4a.687.687,0,0,0,.687-.687v-6.568a.687.687,0,0,1,.687-.687h2.21a.687.687,0,0,1,.687.687v6.568a.686.686,0,0,0,.685.687h3.47a.685.685,0,0,1,.685.685Zm27.139,11.451a.687.687,0,0,1-.687.687h-2.041a.687.687,0,0,1-.687-.687v-.008a.686.686,0,0,0-.685-.685H851.288a.686.686,0,0,0-.687.685v.008a.686.686,0,0,1-.685.687h-2.041a.687.687,0,0,1-.687-.687v-15.84a.686.686,0,0,1,.687-.685h2.041a.686.686,0,0,1,.685.685v11.144a.686.686,0,0,0,.687.685h12.306a.686.686,0,0,0,.685-.685V220.031a.686.686,0,0,1,.687-.685h2.041a.686.686,0,0,1,.687.685Zm.774-18.351a.687.687,0,0,1-.687.687h-7.972a.686.686,0,0,0-.685.687v.152a.686.686,0,0,0,.685.687h2.7a.685.685,0,0,1,.685.685v9.764a.684.684,0,0,1-.685.685H852.378a.685.685,0,0,1-.687-.685v-9.764a.686.686,0,0,1,.687-.685h2.5a.687.687,0,0,0,.687-.687v-.152a.687.687,0,0,0-.687-.687h-7.754a.686.686,0,0,1-.685-.687v-1.895a.686.686,0,0,1,.685-.687h20.658a.687.687,0,0,1,.687.687Z" transform="translate(-625.752 -203.367)" fill="#000"/></svg>
