<svg xmlns="http://www.w3.org/2000/svg" width="293.394" height="28" viewBox="0 0 293.394 28"><g transform="translate(-27 -1512)"><g transform="translate(-94.063 1312.636)"><path d="M124.921,226.665l.623-5.266a.51.51,0,0,0-.506-.571h-1.464a.51.51,0,0,1-.51-.511v-2.41a.51.51,0,0,1,.51-.511h1.982a.51.51,0,0,0,.506-.448l.329-2.652a.511.511,0,0,0-.506-.574h-1.613a.511.511,0,0,1-.51-.511V210.8a.511.511,0,0,1,.51-.511h2.194a.511.511,0,0,0,.506-.448l.587-4.752a.51.51,0,0,1,.506-.448H130.1a.51.51,0,0,1,.506.57l-.532,4.507a.51.51,0,0,0,.506.57h2.433a.51.51,0,0,0,.506-.448l.587-4.752a.51.51,0,0,1,.506-.448h2.069a.51.51,0,0,1,.507.57l-.533,4.507a.51.51,0,0,0,.507.57h1.646a.51.51,0,0,1,.51.511v2.41a.51.51,0,0,1-.51.511h-2.2a.511.511,0,0,0-.506.444l-.35,2.652a.51.51,0,0,0,.505.577h1.85a.51.51,0,0,1,.51.511v2.41a.51.51,0,0,1-.51.511h-2.373a.51.51,0,0,0-.506.45l-.652,5.506a.51.51,0,0,1-.506.451h-2.1a.51.51,0,0,1-.506-.571l.623-5.266a.511.511,0,0,0-.506-.571h-2.4a.511.511,0,0,0-.506.448L128,226.787a.51.51,0,0,1-.506.448h-2.069A.51.51,0,0,1,124.921,226.665Zm4.757-9.268h2.43a.51.51,0,0,0,.506-.448l.329-2.652a.511.511,0,0,0-.506-.574h-2.43a.51.51,0,0,0-.506.448l-.329,2.653A.51.51,0,0,0,129.677,217.4Z" transform="translate(0 -1.471)" fill="#fff"/><path d="M185.077,219.745h-3.033a.51.51,0,0,1-.51-.511h0a.51.51,0,0,0-.51-.51H179.2a.51.51,0,0,0-.51.51h0a.51.51,0,0,1-.51.511h-3.033a.51.51,0,0,1-.51-.511v-7.286a.511.511,0,0,0-.51-.511h-1.959a.511.511,0,0,0-.51.511V221.3a.51.51,0,0,0,.51.511h15.94a.51.51,0,0,1,.51.511v2.843a.51.51,0,0,1-.51.511h-15.94a.51.51,0,0,0-.51.511v.58a.51.51,0,0,1-.51.511h-3.116a.51.51,0,0,1-.51-.511V211.949a.511.511,0,0,0-.51-.511h-2.84a.51.51,0,0,1-.51-.51v-2.843a.511.511,0,0,1,.51-.511h2.84a.51.51,0,0,0,.51-.51v-4.61a.51.51,0,0,1,.51-.511h3.116a.51.51,0,0,1,.51.511v4.61a.51.51,0,0,0,.51.51h1.959a.51.51,0,0,0,.51-.51v-5.189a.511.511,0,0,1,.51-.511h3.033a.511.511,0,0,1,.51.511v5.189a.51.51,0,0,0,.51.51h1.821a.51.51,0,0,0,.51-.51v-4.941a.51.51,0,0,1,.51-.51h3.033a.51.51,0,0,1,.51.51v4.941a.51.51,0,0,0,.51.51H189.1a.511.511,0,0,1,.51.511v2.843a.51.51,0,0,1-.51.51H186.1a.511.511,0,0,0-.51.511v7.286A.51.51,0,0,1,185.077,219.745ZM179.2,215h1.821a.51.51,0,0,0,.51-.511v-2.54a.511.511,0,0,0-.51-.511H179.2a.511.511,0,0,0-.51.511v2.54A.51.51,0,0,0,179.2,215Z" transform="translate(-18.207 0)" fill="#fff"/><path d="M243.836,214.764a.513.513,0,0,0-.263.953,18.125,18.125,0,0,0,1.743.91,19.788,19.788,0,0,0,2.913,1.064.505.505,0,0,1,.234.828q-.4.429-.83.993a16.488,16.488,0,0,0-1.024,1.471.51.51,0,0,1-.6.212,18.222,18.222,0,0,1-2.979-1.358.507.507,0,0,0-.756.444V227.2a.51.51,0,0,1-.51.51h-3.171a.51.51,0,0,1-.51-.51v-8.805a.51.51,0,0,1,.51-.51h.314a.51.51,0,0,0,.348-.881,16.66,16.66,0,0,1-1.795-2.034.5.5,0,0,0-.4-.2h-2.175a.5.5,0,0,0-.4.2,18.1,18.1,0,0,1-1.774,1.962.507.507,0,0,0,.347.878h.462a.51.51,0,0,1,.51.511v1.5a8.793,8.793,0,0,1-1.351,4.719,8.954,8.954,0,0,1-4.733,3.337.507.507,0,0,1-.6-.2,13.975,13.975,0,0,0-1.009-1.346q-.481-.579-.917-1.026a.508.508,0,0,1,.207-.831,6.95,6.95,0,0,0,3.233-1.938,4.551,4.551,0,0,0,1.034-2.884v-.5a20.079,20.079,0,0,1-4.071,2.114.51.51,0,0,1-.61-.193,16.48,16.48,0,0,0-1.014-1.369q-.448-.55-.847-.984a.506.506,0,0,1,.215-.823,19.722,19.722,0,0,0,2.865-1.173q.95-.479,1.79-1.015a.512.512,0,0,0-.274-.945H226.37a.51.51,0,0,1-.51-.511V203.075a.51.51,0,0,1,.51-.51h19.194a.51.51,0,0,1,.51.51v11.178a.51.51,0,0,1-.51.511Zm-13.977-8.487v.386a.51.51,0,0,0,.51.511h2.951a.51.51,0,0,0,.51-.511v-.386a.511.511,0,0,0-.51-.511h-2.951A.511.511,0,0,0,229.858,206.277Zm0,4.361v.414a.51.51,0,0,0,.51.51h2.951a.51.51,0,0,0,.51-.51v-.414a.51.51,0,0,0-.51-.511h-2.951A.51.51,0,0,0,229.858,210.638Zm12.024-3.975v-.386a.511.511,0,0,0-.51-.511h-2.979a.511.511,0,0,0-.51.511v.386a.51.51,0,0,0,.51.511h2.979A.51.51,0,0,0,241.882,206.663Zm-3.488,4.9h2.979a.51.51,0,0,0,.51-.51v-.414a.51.51,0,0,0-.51-.511h-2.979a.51.51,0,0,0-.51.511v.414A.51.51,0,0,0,238.394,211.562Z" transform="translate(-44.863 -0.539)" fill="#fff"/><path d="M287.613,204.065h3.34a.512.512,0,0,1,.506.6q-.08.458-.181.9-.088.383-.176.749a.51.51,0,0,0,.5.631h7.912a.51.51,0,0,1,.51.511v3.686c0,.017,0,.035,0,.052a18.791,18.791,0,0,1-1.57,6.309,15.355,15.355,0,0,1-3.047,4.513,18.008,18.008,0,0,1-3.64,2.843,26.229,26.229,0,0,1-3.475,1.711,19.634,19.634,0,0,1-2.634.869l-.432.1a.508.508,0,0,1-.616-.5v-3.444a.507.507,0,0,1,.384-.495q.263-.065.705-.186a15.891,15.891,0,0,0,2.606-1.035,14.057,14.057,0,0,0,3.226-2.263,12.392,12.392,0,0,0,2.716-3.506,13.977,13.977,0,0,0,1.317-4.469.513.513,0,0,0-.507-.581h-5.513a.514.514,0,0,0-.426.234,24.864,24.864,0,0,1-2.965,3.8,20.477,20.477,0,0,1-2.523,2.263l-.261.185a.51.51,0,0,1-.8-.42v-4.15a.5.5,0,0,1,.182-.391q.155-.128.438-.373a8.646,8.646,0,0,0,1.365-1.642,19.4,19.4,0,0,0,1.5-2.691,15.118,15.118,0,0,0,1.064-3.381A.512.512,0,0,1,287.613,204.065Z" transform="translate(-71.452 -1.211)" fill="#fff"/><path d="M346.849,227.222H330.523a.51.51,0,0,1-.51-.51V207.526a.51.51,0,0,1,.51-.511h16.326a.51.51,0,0,1,.51.511v19.186A.51.51,0,0,1,346.849,227.222Zm-4.523-15.874h-7.309a.511.511,0,0,0-.51.511v10.519a.511.511,0,0,0,.51.511h7.309a.51.51,0,0,0,.51-.511V211.859A.511.511,0,0,0,342.326,211.349Z" transform="translate(-92.708 -2.534)" fill="#fff"/><path d="M394.565,224.064v3.249a.512.512,0,0,1-.6.5q-2.139-.364-3.992-.558a46.183,46.183,0,0,0-4.757-.22h-7.294a.51.51,0,0,1-.51-.511v-3.313a.51.51,0,0,1,.51-.511h7.294a50.806,50.806,0,0,1,8.934.858A.513.513,0,0,1,394.565,224.064Zm-.5-16.286v3.248a.512.512,0,0,1-.6.5q-2.139-.362-3.992-.544-2.11-.207-4.785-.235h-6.246a.51.51,0,0,1-.51-.511v-3.313a.51.51,0,0,1,.51-.511h6.246a51.313,51.313,0,0,1,8.96.858A.514.514,0,0,1,394.069,207.778Zm-.855,7.948v3.25a.512.512,0,0,1-.6.5q-2.139-.364-3.992-.558a46.31,46.31,0,0,0-4.785-.221h-4.729a.51.51,0,0,1-.51-.511v-3.313a.51.51,0,0,1,.51-.51h4.729a48.155,48.155,0,0,1,8.963.856A.515.515,0,0,1,393.214,215.726Z" transform="translate(-113.942 -2.265)" fill="#fff"/><path d="M431.4,203.349a46.191,46.191,0,0,1-2.445,4.81.5.5,0,0,0-.069.253v18.426a.51.51,0,0,1-.51.511H425.37a.51.51,0,0,1-.51-.511V215.374a.511.511,0,0,0-.89-.341q-.41.447-.808.843a.508.508,0,0,1-.821-.144q-.305-.66-.777-1.551-.568-1.072-.994-1.745a.5.5,0,0,1,.091-.64,26.253,26.253,0,0,0,3.8-4.418,29.306,29.306,0,0,0,3.006-5.429.5.5,0,0,1,.626-.286l3,1A.512.512,0,0,1,431.4,203.349ZM441.985,223.4a1.157,1.157,0,0,0,.951-.387,2.916,2.916,0,0,0,.469-1.352q.116-.744.209-2.127a.508.508,0,0,1,.757-.416,10.99,10.99,0,0,0,1.074.541,12.41,12.41,0,0,0,1.52.572.508.508,0,0,1,.356.539,15.9,15.9,0,0,1-.69,3.581,4.047,4.047,0,0,1-1.5,2.111,4.875,4.875,0,0,1-2.731.663h-4.219a6.968,6.968,0,0,1-2.978-.511,2.888,2.888,0,0,1-1.476-1.725,10.848,10.848,0,0,1-.427-3.45v-19a.51.51,0,0,1,.51-.511h3.034a.51.51,0,0,1,.51.511v7.61a.51.51,0,0,0,.773.439,53.34,53.34,0,0,0,5.1-3.61.511.511,0,0,1,.709.068l2.262,2.708a.512.512,0,0,1-.111.758,65.677,65.677,0,0,1-8.429,4.545.511.511,0,0,0-.3.463v6.048a7,7,0,0,0,.083,1.3.665.665,0,0,0,.359.511,2.512,2.512,0,0,0,.938.124Z" transform="translate(-133.236 -0.123)" fill="#fff"/><path d="M480.5,206.315h3.964a.51.51,0,0,1,.505.441l1.235,8.945.827,6.514h.11q.469-2.76,1.214-6.514l2.007-8.987a.509.509,0,0,1,.5-.4h3.348a.51.51,0,0,1,.5.4l2.033,8.988q.249,1.214.689,3.7l.5,2.815h.138l.772-6.514,1.288-8.948a.51.51,0,0,1,.5-.438h3.613a.51.51,0,0,1,.5.6l-3.381,19.545a.51.51,0,0,1-.5.423H495.5a.51.51,0,0,1-.5-.407l-1.763-8.537q-.5-2.374-.8-4.775h-.11l-.33,1.9q-.083.47-.221,1.353t-.276,1.518l-1.71,8.535a.51.51,0,0,1-.5.41h-5.251a.51.51,0,0,1-.5-.42L480,206.916A.51.51,0,0,1,480.5,206.315Z" transform="translate(-159.891 -2.22)" fill="#fff"/><path d="M539.111,226.371V206.825a.51.51,0,0,1,.51-.51h12a.51.51,0,0,1,.51.51v3.092a.51.51,0,0,1-.51.511h-7.06a.51.51,0,0,0-.51.511v2.788a.51.51,0,0,0,.51.511H550.4a.51.51,0,0,1,.51.511v3.119a.51.51,0,0,1-.51.511h-5.847a.51.51,0,0,0-.51.511v3.341a.51.51,0,0,0,.51.511h7.364a.51.51,0,0,1,.51.51v3.12a.51.51,0,0,1-.51.511h-12.3A.51.51,0,0,1,539.111,226.371Z" transform="translate(-186.382 -2.22)" fill="#fff"/><path d="M579.611,226.371V206.825a.51.51,0,0,1,.51-.51h12a.51.51,0,0,1,.51.51v3.092a.51.51,0,0,1-.51.511h-7.06a.51.51,0,0,0-.51.511v2.788a.51.51,0,0,0,.51.511H590.9a.51.51,0,0,1,.51.511v3.119a.51.51,0,0,1-.51.511h-5.846a.51.51,0,0,0-.51.511v3.341a.51.51,0,0,0,.51.511h7.363a.51.51,0,0,1,.51.51v3.12a.51.51,0,0,1-.51.511h-12.3A.51.51,0,0,1,579.611,226.371Z" transform="translate(-204.503 -2.22)" fill="#fff"/><path d="M620.11,226.371V206.825a.51.51,0,0,1,.51-.51h3.917a.51.51,0,0,1,.51.51v7.634h.083l5.667-7.931a.511.511,0,0,1,.415-.213h4.121a.511.511,0,0,1,.408.818l-5.384,7.162a.51.51,0,0,0-.03.569l6.724,11.244a.511.511,0,0,1-.437.773h-4.183a.51.51,0,0,1-.442-.256l-4.317-7.488a.509.509,0,0,0-.852-.047l-1.672,2.273a.511.511,0,0,0-.1.3v4.705a.51.51,0,0,1-.51.511H620.62A.51.51,0,0,1,620.11,226.371Z" transform="translate(-222.665 -2.22)" fill="#fff"/></g><g transform="translate(-96.063 1310.636)"><path d="M124.921,226.665l.623-5.266a.51.51,0,0,0-.506-.571h-1.464a.51.51,0,0,1-.51-.511v-2.41a.51.51,0,0,1,.51-.511h1.982a.51.51,0,0,0,.506-.448l.329-2.652a.511.511,0,0,0-.506-.574h-1.613a.511.511,0,0,1-.51-.511V210.8a.511.511,0,0,1,.51-.511h2.194a.511.511,0,0,0,.506-.448l.587-4.752a.51.51,0,0,1,.506-.448H130.1a.51.51,0,0,1,.506.57l-.532,4.507a.51.51,0,0,0,.506.57h2.433a.51.51,0,0,0,.506-.448l.587-4.752a.51.51,0,0,1,.506-.448h2.069a.51.51,0,0,1,.507.57l-.533,4.507a.51.51,0,0,0,.507.57h1.646a.51.51,0,0,1,.51.511v2.41a.51.51,0,0,1-.51.511h-2.2a.511.511,0,0,0-.506.444l-.35,2.652a.51.51,0,0,0,.505.577h1.85a.51.51,0,0,1,.51.511v2.41a.51.51,0,0,1-.51.511h-2.373a.51.51,0,0,0-.506.45l-.652,5.506a.51.51,0,0,1-.506.451h-2.1a.51.51,0,0,1-.506-.571l.623-5.266a.511.511,0,0,0-.506-.571h-2.4a.511.511,0,0,0-.506.448L128,226.787a.51.51,0,0,1-.506.448h-2.069A.51.51,0,0,1,124.921,226.665Zm4.757-9.268h2.43a.51.51,0,0,0,.506-.448l.329-2.652a.511.511,0,0,0-.506-.574h-2.43a.51.51,0,0,0-.506.448l-.329,2.653A.51.51,0,0,0,129.677,217.4Z" transform="translate(0 -1.471)"/><path d="M185.077,219.745h-3.033a.51.51,0,0,1-.51-.511h0a.51.51,0,0,0-.51-.51H179.2a.51.51,0,0,0-.51.51h0a.51.51,0,0,1-.51.511h-3.033a.51.51,0,0,1-.51-.511v-7.286a.511.511,0,0,0-.51-.511h-1.959a.511.511,0,0,0-.51.511V221.3a.51.51,0,0,0,.51.511h15.94a.51.51,0,0,1,.51.511v2.843a.51.51,0,0,1-.51.511h-15.94a.51.51,0,0,0-.51.511v.58a.51.51,0,0,1-.51.511h-3.116a.51.51,0,0,1-.51-.511V211.949a.511.511,0,0,0-.51-.511h-2.84a.51.51,0,0,1-.51-.51v-2.843a.511.511,0,0,1,.51-.511h2.84a.51.51,0,0,0,.51-.51v-4.61a.51.51,0,0,1,.51-.511h3.116a.51.51,0,0,1,.51.511v4.61a.51.51,0,0,0,.51.51h1.959a.51.51,0,0,0,.51-.51v-5.189a.511.511,0,0,1,.51-.511h3.033a.511.511,0,0,1,.51.511v5.189a.51.51,0,0,0,.51.51h1.821a.51.51,0,0,0,.51-.51v-4.941a.51.51,0,0,1,.51-.51h3.033a.51.51,0,0,1,.51.51v4.941a.51.51,0,0,0,.51.51H189.1a.511.511,0,0,1,.51.511v2.843a.51.51,0,0,1-.51.51H186.1a.511.511,0,0,0-.51.511v7.286A.51.51,0,0,1,185.077,219.745ZM179.2,215h1.821a.51.51,0,0,0,.51-.511v-2.54a.511.511,0,0,0-.51-.511H179.2a.511.511,0,0,0-.51.511v2.54A.51.51,0,0,0,179.2,215Z" transform="translate(-18.207 0)"/><path d="M243.836,214.764a.513.513,0,0,0-.263.953,18.125,18.125,0,0,0,1.743.91,19.788,19.788,0,0,0,2.913,1.064.505.505,0,0,1,.234.828q-.4.429-.83.993a16.488,16.488,0,0,0-1.024,1.471.51.51,0,0,1-.6.212,18.222,18.222,0,0,1-2.979-1.358.507.507,0,0,0-.756.444V227.2a.51.51,0,0,1-.51.51h-3.171a.51.51,0,0,1-.51-.51v-8.805a.51.51,0,0,1,.51-.51h.314a.51.51,0,0,0,.348-.881,16.66,16.66,0,0,1-1.795-2.034.5.5,0,0,0-.4-.2h-2.175a.5.5,0,0,0-.4.2,18.1,18.1,0,0,1-1.774,1.962.507.507,0,0,0,.347.878h.462a.51.51,0,0,1,.51.511v1.5a8.793,8.793,0,0,1-1.351,4.719,8.954,8.954,0,0,1-4.733,3.337.507.507,0,0,1-.6-.2,13.975,13.975,0,0,0-1.009-1.346q-.481-.579-.917-1.026a.508.508,0,0,1,.207-.831,6.95,6.95,0,0,0,3.233-1.938,4.551,4.551,0,0,0,1.034-2.884v-.5a20.079,20.079,0,0,1-4.071,2.114.51.51,0,0,1-.61-.193,16.48,16.48,0,0,0-1.014-1.369q-.448-.55-.847-.984a.506.506,0,0,1,.215-.823,19.722,19.722,0,0,0,2.865-1.173q.95-.479,1.79-1.015a.512.512,0,0,0-.274-.945H226.37a.51.51,0,0,1-.51-.511V203.075a.51.51,0,0,1,.51-.51h19.194a.51.51,0,0,1,.51.51v11.178a.51.51,0,0,1-.51.511Zm-13.977-8.487v.386a.51.51,0,0,0,.51.511h2.951a.51.51,0,0,0,.51-.511v-.386a.511.511,0,0,0-.51-.511h-2.951A.511.511,0,0,0,229.858,206.277Zm0,4.361v.414a.51.51,0,0,0,.51.51h2.951a.51.51,0,0,0,.51-.51v-.414a.51.51,0,0,0-.51-.511h-2.951A.51.51,0,0,0,229.858,210.638Zm12.024-3.975v-.386a.511.511,0,0,0-.51-.511h-2.979a.511.511,0,0,0-.51.511v.386a.51.51,0,0,0,.51.511h2.979A.51.51,0,0,0,241.882,206.663Zm-3.488,4.9h2.979a.51.51,0,0,0,.51-.51v-.414a.51.51,0,0,0-.51-.511h-2.979a.51.51,0,0,0-.51.511v.414A.51.51,0,0,0,238.394,211.562Z" transform="translate(-44.863 -0.539)"/><path d="M287.613,204.065h3.34a.512.512,0,0,1,.506.6q-.08.458-.181.9-.088.383-.176.749a.51.51,0,0,0,.5.631h7.912a.51.51,0,0,1,.51.511v3.686c0,.017,0,.035,0,.052a18.791,18.791,0,0,1-1.57,6.309,15.355,15.355,0,0,1-3.047,4.513,18.008,18.008,0,0,1-3.64,2.843,26.229,26.229,0,0,1-3.475,1.711,19.634,19.634,0,0,1-2.634.869l-.432.1a.508.508,0,0,1-.616-.5v-3.444a.507.507,0,0,1,.384-.495q.263-.065.705-.186a15.891,15.891,0,0,0,2.606-1.035,14.057,14.057,0,0,0,3.226-2.263,12.392,12.392,0,0,0,2.716-3.506,13.977,13.977,0,0,0,1.317-4.469.513.513,0,0,0-.507-.581h-5.513a.514.514,0,0,0-.426.234,24.864,24.864,0,0,1-2.965,3.8,20.477,20.477,0,0,1-2.523,2.263l-.261.185a.51.51,0,0,1-.8-.42v-4.15a.5.5,0,0,1,.182-.391q.155-.128.438-.373a8.646,8.646,0,0,0,1.365-1.642,19.4,19.4,0,0,0,1.5-2.691,15.118,15.118,0,0,0,1.064-3.381A.512.512,0,0,1,287.613,204.065Z" transform="translate(-71.452 -1.211)"/><path d="M346.849,227.222H330.523a.51.51,0,0,1-.51-.51V207.526a.51.51,0,0,1,.51-.511h16.326a.51.51,0,0,1,.51.511v19.186A.51.51,0,0,1,346.849,227.222Zm-4.523-15.874h-7.309a.511.511,0,0,0-.51.511v10.519a.511.511,0,0,0,.51.511h7.309a.51.51,0,0,0,.51-.511V211.859A.511.511,0,0,0,342.326,211.349Z" transform="translate(-92.708 -2.534)"/><path d="M394.565,224.064v3.249a.512.512,0,0,1-.6.5q-2.139-.364-3.992-.558a46.183,46.183,0,0,0-4.757-.22h-7.294a.51.51,0,0,1-.51-.511v-3.313a.51.51,0,0,1,.51-.511h7.294a50.806,50.806,0,0,1,8.934.858A.513.513,0,0,1,394.565,224.064Zm-.5-16.286v3.248a.512.512,0,0,1-.6.5q-2.139-.362-3.992-.544-2.11-.207-4.785-.235h-6.246a.51.51,0,0,1-.51-.511v-3.313a.51.51,0,0,1,.51-.511h6.246a51.313,51.313,0,0,1,8.96.858A.514.514,0,0,1,394.069,207.778Zm-.855,7.948v3.25a.512.512,0,0,1-.6.5q-2.139-.364-3.992-.558a46.31,46.31,0,0,0-4.785-.221h-4.729a.51.51,0,0,1-.51-.511v-3.313a.51.51,0,0,1,.51-.51h4.729a48.155,48.155,0,0,1,8.963.856A.515.515,0,0,1,393.214,215.726Z" transform="translate(-113.942 -2.265)"/><path d="M431.4,203.349a46.191,46.191,0,0,1-2.445,4.81.5.5,0,0,0-.069.253v18.426a.51.51,0,0,1-.51.511H425.37a.51.51,0,0,1-.51-.511V215.374a.511.511,0,0,0-.89-.341q-.41.447-.808.843a.508.508,0,0,1-.821-.144q-.305-.66-.777-1.551-.568-1.072-.994-1.745a.5.5,0,0,1,.091-.64,26.253,26.253,0,0,0,3.8-4.418,29.306,29.306,0,0,0,3.006-5.429.5.5,0,0,1,.626-.286l3,1A.512.512,0,0,1,431.4,203.349ZM441.985,223.4a1.157,1.157,0,0,0,.951-.387,2.916,2.916,0,0,0,.469-1.352q.116-.744.209-2.127a.508.508,0,0,1,.757-.416,10.99,10.99,0,0,0,1.074.541,12.41,12.41,0,0,0,1.52.572.508.508,0,0,1,.356.539,15.9,15.9,0,0,1-.69,3.581,4.047,4.047,0,0,1-1.5,2.111,4.875,4.875,0,0,1-2.731.663h-4.219a6.968,6.968,0,0,1-2.978-.511,2.888,2.888,0,0,1-1.476-1.725,10.848,10.848,0,0,1-.427-3.45v-19a.51.51,0,0,1,.51-.511h3.034a.51.51,0,0,1,.51.511v7.61a.51.51,0,0,0,.773.439,53.34,53.34,0,0,0,5.1-3.61.511.511,0,0,1,.709.068l2.262,2.708a.512.512,0,0,1-.111.758,65.677,65.677,0,0,1-8.429,4.545.511.511,0,0,0-.3.463v6.048a7,7,0,0,0,.083,1.3.665.665,0,0,0,.359.511,2.512,2.512,0,0,0,.938.124Z" transform="translate(-133.236 -0.123)"/><path d="M480.5,206.315h3.964a.51.51,0,0,1,.505.441l1.235,8.945.827,6.514h.11q.469-2.76,1.214-6.514l2.007-8.987a.509.509,0,0,1,.5-.4h3.348a.51.51,0,0,1,.5.4l2.033,8.988q.249,1.214.689,3.7l.5,2.815h.138l.772-6.514,1.288-8.948a.51.51,0,0,1,.5-.438h3.613a.51.51,0,0,1,.5.6l-3.381,19.545a.51.51,0,0,1-.5.423H495.5a.51.51,0,0,1-.5-.407l-1.763-8.537q-.5-2.374-.8-4.775h-.11l-.33,1.9q-.083.47-.221,1.353t-.276,1.518l-1.71,8.535a.51.51,0,0,1-.5.41h-5.251a.51.51,0,0,1-.5-.42L480,206.916A.51.51,0,0,1,480.5,206.315Z" transform="translate(-159.891 -2.22)"/><path d="M539.111,226.371V206.825a.51.51,0,0,1,.51-.51h12a.51.51,0,0,1,.51.51v3.092a.51.51,0,0,1-.51.511h-7.06a.51.51,0,0,0-.51.511v2.788a.51.51,0,0,0,.51.511H550.4a.51.51,0,0,1,.51.511v3.119a.51.51,0,0,1-.51.511h-5.847a.51.51,0,0,0-.51.511v3.341a.51.51,0,0,0,.51.511h7.364a.51.51,0,0,1,.51.51v3.12a.51.51,0,0,1-.51.511h-12.3A.51.51,0,0,1,539.111,226.371Z" transform="translate(-186.382 -2.22)"/><path d="M579.611,226.371V206.825a.51.51,0,0,1,.51-.51h12a.51.51,0,0,1,.51.51v3.092a.51.51,0,0,1-.51.511h-7.06a.51.51,0,0,0-.51.511v2.788a.51.51,0,0,0,.51.511H590.9a.51.51,0,0,1,.51.511v3.119a.51.51,0,0,1-.51.511h-5.846a.51.51,0,0,0-.51.511v3.341a.51.51,0,0,0,.51.511h7.363a.51.51,0,0,1,.51.51v3.12a.51.51,0,0,1-.51.511h-12.3A.51.51,0,0,1,579.611,226.371Z" transform="translate(-204.503 -2.22)"/><path d="M620.11,226.371V206.825a.51.51,0,0,1,.51-.51h3.917a.51.51,0,0,1,.51.51v7.634h.083l5.667-7.931a.511.511,0,0,1,.415-.213h4.121a.511.511,0,0,1,.408.818l-5.384,7.162a.51.51,0,0,0-.03.569l6.724,11.244a.511.511,0,0,1-.437.773h-4.183a.51.51,0,0,1-.442-.256l-4.317-7.488a.509.509,0,0,0-.852-.047l-1.672,2.273a.511.511,0,0,0-.1.3v4.705a.51.51,0,0,1-.51.511H620.62A.51.51,0,0,1,620.11,226.371Z" transform="translate(-222.665 -2.22)"/></g></g></svg>