<svg xmlns="http://www.w3.org/2000/svg" width="28" height="27.841" viewBox="0 0 28 27.841"><g transform="translate(0 0)"><path d="M18.4,10.772q-.165.016-.332.017a3.6,3.6,0,0,1-3.016-1.63v5.55a4.1,4.1,0,1,1-4.1-4.1h0c.086,0,.169.008.254.013v2.022a2.089,2.089,0,1,0-.254,4.162,2.145,2.145,0,0,0,2.178-2.068l.02-9.426h1.934a3.6,3.6,0,0,0,3.32,3.216v2.247" transform="translate(1.372 1.941)" fill="#fff"/><path d="M-1003.5-1350.079h0v-.8a13.034,13.034,0,0,0,7.834-3.783A13.114,13.114,0,0,0-991.8-1364a13.112,13.112,0,0,0-3.866-9.333,13.031,13.031,0,0,0-7.834-3.783v-.8a13.967,13.967,0,0,1,8.885,4.531A13.968,13.968,0,0,1-991-1364a13.969,13.969,0,0,1-3.615,9.389,13.967,13.967,0,0,1-8.884,4.531Zm-3,0h0a13.965,13.965,0,0,1-8.884-4.531A13.97,13.97,0,0,1-1019-1364a13.969,13.969,0,0,1,3.615-9.389,13.965,13.965,0,0,1,8.885-4.531v.8a13.034,13.034,0,0,0-7.835,3.783A13.112,13.112,0,0,0-1018.2-1364a13.114,13.114,0,0,0,3.865,9.334,13.04,13.04,0,0,0,7.835,3.783v.8Z" transform="translate(1019 1377.921)" fill="#fff"/></g></svg>